STARTFONT 2.1
FONT -WRI-Mathematica2Mono-Bold-R-Normal--32-320-75-75-M-220-Adobe-FontSpecific
SIZE 32 75 75
FONTBOUNDINGBOX 71 200 -7 -129
STARTPROPERTIES 16
FOUNDRY "WRI"
FAMILY_NAME "Mathematica2Mono"
WEIGHT_NAME "Bold"
SLANT "R"
SETWIDTH_NAME "Normal"
PIXEL_SIZE 32
POINT_SIZE 320
RESOLUTION_X 75
RESOLUTION_Y 75
SPACING "M"
AVERAGE_WIDTH 220
CHARSET_REGISTRY "Adobe"
CHARSET_ENCODING "FontSpecific"
FONT_DESCENT 129
FONT_ASCENT 71
DEFAULT_CHAR 32
ENDPROPERTIES
CHARS 223
STARTCHAR space
ENCODING 32
SWIDTH 263 0
DWIDTH 8 0
BBX 0 0 0 0
BITMAP
ENDCHAR
STARTCHAR Radical1Extens
ENCODING 33
SWIDTH 260 0
DWIDTH 8 0
BBX 8 3 0 7
BITMAP
ff
ff
ff
ENDCHAR
STARTCHAR Radical2
ENCODING 34
SWIDTH 1041 0
DWIDTH 33 0
BBX 32 54 2 -32
BITMAP
0000001f
0000001f
0000003f
00000038
00000038
00000038
00000070
00000070
00000070
00000070
00000070
000000e0
000000e0
000000e0
000000e0
000000e0
000001c0
000001c0
000001c0
000001c0
000001c0
00000380
00000380
00000380
00000380
01000300
07800700
1f800700
7fc00700
f9c00700
61e00600
00e00e00
00f00e00
00700e00
00780e00
00380c00
00381c00
001c1c00
001c1c00
000e1c00
000e1800
00073800
00073800
0003b800
0003b000
0001f000
0001f000
0001f000
0000f000
0000e000
00006000
00006000
00002000
00002000
ENDCHAR
STARTCHAR Radical2Extens
ENCODING 35
SWIDTH 260 0
DWIDTH 8 0
BBX 8 3 0 19
BITMAP
ff
ff
ff
ENDCHAR
STARTCHAR Radical3
ENCODING 36
SWIDTH 1183 0
DWIDTH 38 0
BBX 36 92 2 -43
BITMAP
00000003f0
00000003f0
00000003f0
0000000700
0000000700
0000000700
0000000700
0000000700
0000000700
0000000700
0000000e00
0000000e00
0000000e00
0000000e00
0000000e00
0000000e00
0000000e00
0000000c00
0000001c00
0000001c00
0000001c00
0000001c00
0000001c00
0000001c00
0000001800
0000003800
0000003800
0000003800
0000003800
0000003800
0000003800
0000003000
0000007000
0000007000
0000007000
0000007000
0000007000
0000007000
0000006000
000000e000
000000e000
000000e000
000000e000
000000e000
000000e000
000000c000
000001c000
000001c000
000001c000
000001c000
000001c000
0000018000
0000018000
0380038000
0f80038000
1f80038000
ffc0038000
79c0038000
61c0030000
00e0030000
00e0070000
00f0070000
0070070000
0070070000
0038070000
0038060000
0038060000
001c0e0000
001c0e0000
001c0e0000
000e0e0000
000e0e0000
000f0c0000
00070c0000
00071c0000
00039c0000
00039c0000
00039c0000
0001dc0000
0001d80000
0001d80000
0000f80000
0000f80000
0000f80000
0000780000
0000780000
0000300000
0000300000
0000300000
0000100000
0000100000
0000100000
ENDCHAR
STARTCHAR Radical3Extens
ENCODING 37
SWIDTH 260 0
DWIDTH 8 0
BBX 8 3 0 47
BITMAP
ff
ff
ff
ENDCHAR
STARTCHAR Radical4
ENCODING 38
SWIDTH 1214 0
DWIDTH 39 0
BBX 37 124 2 -55
BITMAP
00000007f8
00000007f8
00000007f8
0000000700
0000000700
0000000700
0000000700
0000000700
0000000700
0000000700
0000000600
0000000600
0000000e00
0000000e00
0000000e00
0000000e00
0000000e00
0000000e00
0000000e00
0000000e00
0000000e00
0000000e00
0000000c00
0000001c00
0000001c00
0000001c00
0000001c00
0000001c00
0000001c00
0000001c00
0000001c00
0000001c00
0000001c00
0000001c00
0000001800
0000003800
0000003800
0000003800
0000003800
0000003800
0000003800
0000003800
0000003800
0000003800
0000003800
0000003800
0000007000
0000007000
0000007000
0000007000
0000007000
0000007000
0000007000
0000007000
0000007000
0000007000
0000007000
0000007000
000000e000
000000e000
000000e000
000000e000
000000e000
000000e000
000000e000
000000e000
000000e000
000000e000
000000e000
000001e000
000001c000
000001c000
008001c000
038001c000
0f8001c000
3fc001c000
fdc001c000
71c001c000
40c001c000
00e001c000
00e001c000
006003c000
0070038000
0070038000
0070038000
0038038000
0038038000
0038038000
001c038000
001c038000
001c038000
000c038000
000e078000
000e078000
0006070000
0007070000
0007070000
0003070000
0003870000
0003870000
0001870000
0001c70000
0001c70000
0001c70000
0000cf0000
0000ef0000
0000ee0000
00006e0000
00007e0000
00007e0000
00003e0000
00003e0000
00003e0000
00001e0000
00001e0000
00001e0000
00000e0000
00000e0000
00000c0000
0000040000
0000040000
0000040000
0000020000
0000020000
ENDCHAR
STARTCHAR Radical4Extens
ENCODING 39
SWIDTH 260 0
DWIDTH 8 0
BBX 8 3 0 66
BITMAP
ff
ff
ff
ENDCHAR
STARTCHAR Radical5
ENCODING 40
SWIDTH 1143 0
DWIDTH 37 0
BBX 27 132 2 -63
BITMAP
000001c0
000001c0
000001c0
000001c0
000001c0
000001c0
000001c0
000001c0
000001c0
000001c0
000001c0
000001c0
000001c0
000001c0
000001c0
000001c0
000001c0
000001c0
000001c0
000001c0
000001c0
000001c0
000001c0
000001c0
000001c0
000001c0
000001c0
000001c0
000001c0
000001c0
000001c0
000001c0
000001c0
000001c0
000001c0
000001c0
000001c0
000001c0
000001c0
000001c0
000001c0
000001c0
000001c0
000001c0
000001c0
000001c0
000001c0
000001c0
000001c0
000001c0
000001c0
000001c0
000001c0
000001c0
000001c0
000001c0
000001c0
000001c0
000001c0
000001c0
000001c0
000001c0
000001c0
000001c0
000001c0
000001c0
000001c0
000001c0
000001c0
000001c0
000001c0
000001c0
008001c0
038001c0
0fc001c0
7fc001c0
fdc001c0
70e001c0
40e001c0
00e001c0
007001c0
007001c0
007001c0
003801c0
003801c0
003801c0
001c01c0
001c01c0
001c01c0
000e01c0
000e01c0
000e01c0
000701c0
000701c0
000701c0
000381c0
000381c0
000381c0
0001c1c0
0001c1c0
0001c1c0
0000e1c0
0000e1c0
0000e1c0
000071c0
000071c0
000071c0
000039c0
000039c0
000039c0
00001dc0
00001dc0
00001dc0
00000fc0
00000fc0
00000fc0
000007c0
000007c0
000007c0
000003c0
000003c0
000003c0
000001c0
000001c0
000001c0
000000c0
000000c0
000000c0
00000040
00000040
00000040
00000020
ENDCHAR
STARTCHAR Radical5VertExtens
ENCODING 41
SWIDTH 1143 0
DWIDTH 37 0
BBX 3 10 25 0
BITMAP
e0
e0
e0
e0
e0
e0
e0
e0
e0
e0
ENDCHAR
STARTCHAR Radical5Top
ENCODING 42
SWIDTH 1143 0
DWIDTH 37 0
BBX 12 10 25 0
BITMAP
fff0
fff0
fff0
e000
e000
e000
e000
e000
e000
e000
ENDCHAR
STARTCHAR Radical5Extens
ENCODING 43
SWIDTH 260 0
DWIDTH 8 0
BBX 8 3 0 8
BITMAP
ff
ff
ff
ENDCHAR
STARTCHAR FixedFreeRadical1
ENCODING 44
SWIDTH 918 0
DWIDTH 29 0
BBX 27 36 2 -26
BITMAP
000000e0
000000c0
000001c0
000001c0
00000180
00000380
00000380
00000380
00000700
00000700
00000700
00000600
00000e00
01000e00
07800c00
1f801c00
7fc01c00
f9c01c00
61e03800
00e03800
00f03800
00703000
00787000
00387000
003c6000
001ce000
001ee000
000ee000
000fc000
0007c000
0007c000
00038000
00038000
00018000
00010000
00008000
ENDCHAR
STARTCHAR FixedFreeRadical2
ENCODING 45
SWIDTH 1041 0
DWIDTH 33 0
BBX 30 54 2 -32
BITMAP
0000001c
00000018
00000038
00000038
00000038
00000038
00000030
00000070
00000070
00000070
00000070
00000060
000000e0
000000e0
000000e0
000000e0
000001c0
000001c0
000001c0
000001c0
000001c0
00000380
00000380
00000380
00000380
01000300
07800700
1f800700
7fc00700
f9c00700
60e00600
00e00e00
00f00e00
00700e00
00780e00
00380c00
00381c00
001c1c00
001c1c00
000e1c00
000e1800
00073800
00073800
0003b800
0003b800
0001f000
0001f000
0001f000
0000f000
0000e000
00006000
00006000
00002000
00002000
ENDCHAR
STARTCHAR FixedFreeRadical3
ENCODING 46
SWIDTH 1182 0
DWIDTH 38 0
BBX 33 92 2 -43
BITMAP
0000000380
0000000380
0000000700
0000000700
0000000700
0000000700
0000000700
0000000700
0000000700
0000000e00
0000000e00
0000000e00
0000000e00
0000000e00
0000000e00
0000000e00
0000001c00
0000001c00
0000001c00
0000001c00
0000001c00
0000001c00
0000001c00
0000001800
0000003800
0000003800
0000003800
0000003800
0000003800
0000003800
0000003000
0000007000
0000007000
0000007000
0000007000
0000007000
0000007000
0000006000
000000e000
000000e000
000000e000
000000e000
000000e000
000000e000
000000c000
000001c000
000001c000
000001c000
000001c000
000001c000
0000018000
0000018000
0080038000
0380038000
0f80038000
3f80038000
fdc0038000
71c0030000
41c0030000
00e0070000
00e0070000
00f0070000
0070070000
0070070000
0038060000
0038060000
00380e0000
001c0e0000
001c0e0000
001c0e0000
000e0e0000
000e0c0000
000e0c0000
00071c0000
00071c0000
00039c0000
00039c0000
00039c0000
0001d80000
0001d80000
0001f80000
0000f80000
0000f80000
0000f80000
0000780000
0000700000
0000300000
0000300000
0000300000
0000100000
0000100000
0000100000
ENDCHAR
STARTCHAR FixedFreeRadical4
ENCODING 47
SWIDTH 1214 0
DWIDTH 39 0
BBX 33 124 2 -55
BITMAP
0000000380
0000000380
0000000300
0000000700
0000000700
0000000700
0000000700
0000000700
0000000700
0000000700
0000000700
0000000700
0000000700
0000000700
0000000e00
0000000e00
0000000e00
0000000e00
0000000e00
0000000e00
0000000e00
0000000e00
0000000e00
0000000e00
0000000e00
0000001c00
0000001c00
0000001c00
0000001c00
0000001c00
0000001c00
0000001c00
0000001c00
0000001c00
0000001c00
0000001c00
0000001c00
0000003800
0000003800
0000003800
0000003800
0000003800
0000003800
0000003800
0000003800
0000003800
0000003800
0000003800
0000007800
0000007000
0000007000
0000007000
0000007000
0000007000
0000007000
0000007000
0000007000
0000007000
0000007000
000000f000
000000e000
000000e000
000000e000
000000e000
000000e000
000000e000
000000e000
000000e000
000000e000
000000e000
000001e000
000001e000
008001c000
038001c000
0f8001c000
3fc001c000
fdc001c000
71c001c000
40c001c000
00e001c000
00e001c000
006003c000
007003c000
0070038000
0070038000
0038038000
0038038000
0038038000
001c038000
001c038000
001c038000
000c038000
000e038000
000e078000
0006078000
0007070000
0007070000
0003070000
0003870000
0003870000
0001870000
0001c70000
0001c70000
0001c70000
0000cf0000
0000ef0000
0000ef0000
00006e0000
00007e0000
00007e0000
00003e0000
00003e0000
00003e0000
00001e0000
00001e0000
00001e0000
00000e0000
00000e0000
00000c0000
0000040000
0000040000
0000040000
0000020000
0000020000
ENDCHAR
STARTCHAR TexRad1
ENCODING 48
SWIDTH 918 0
DWIDTH 29 0
BBX 28 37 2 -34
BITMAP
000000f0
000000f0
000001f0
000001c0
000001c0
00000380
00000380
00000380
00000300
00000700
00000700
00000600
00000e00
00000e00
03000e00
0f800c00
3f801c00
fdc01c00
71c01800
40e03800
00e03800
00703800
00707000
00387000
00387000
001c6000
001ce000
001ee000
000ec000
000fc000
0007c000
0007c000
00038000
00038000
00018000
00010000
00008000
ENDCHAR
STARTCHAR TexRad2
ENCODING 49
SWIDTH 1041 0
DWIDTH 33 0
BBX 32 54 2 -51
BITMAP
0000001f
0000001f
0000003f
00000038
00000038
00000038
00000070
00000070
00000070
00000070
00000070
000000e0
000000e0
000000e0
000000e0
000000e0
000001c0
000001c0
000001c0
000001c0
000001c0
00000380
00000380
00000380
00000380
01000300
07800700
1f800700
7fc00700
f9c00700
61e00600
00e00e00
00f00e00
00700e00
00780e00
00380c00
00381c00
001c1c00
001c1c00
000e1c00
000e1800
00073800
00073800
0003b800
0003b000
0001f000
0001f000
0001f000
0000f000
0000e000
00006000
00006000
00002000
00002000
ENDCHAR
STARTCHAR TexRad3
ENCODING 50
SWIDTH 1183 0
DWIDTH 38 0
BBX 36 92 2 -89
BITMAP
00000003f0
00000003f0
00000003f0
0000000300
0000000700
0000000700
0000000700
0000000700
0000000700
0000000700
0000000600
0000000e00
0000000e00
0000000e00
0000000e00
0000000e00
0000000e00
0000000c00
0000001c00
0000001c00
0000001c00
0000001c00
0000001c00
0000001c00
0000001800
0000003800
0000003800
0000003800
0000003800
0000003800
0000003800
0000003000
0000007000
0000007000
0000007000
0000007000
0000007000
0000007000
0000006000
000000e000
000000e000
000000e000
000000e000
000000e000
000000e000
000000c000
000001c000
000001c000
000001c000
000001c000
000001c000
0000018000
0000018000
0380038000
0f80038000
1f80038000
ffc0038000
79c0038000
61c0030000
00e0030000
00e0070000
00f0070000
0070070000
0070070000
0038070000
0038060000
0038060000
001c0e0000
001c0e0000
001c0e0000
000e0e0000
000e0e0000
000f0c0000
00070c0000
00071c0000
00039c0000
00039c0000
00039c0000
0001dc0000
0001d80000
0001d80000
0000f80000
0000f80000
0000f80000
0000780000
0000780000
0000300000
0000300000
0000300000
0000100000
0000100000
0000100000
ENDCHAR
STARTCHAR TexRad4
ENCODING 51
SWIDTH 1214 0
DWIDTH 39 0
BBX 37 124 2 -121
BITMAP
00000007f8
00000007f8
00000007f8
0000000700
0000000700
0000000700
0000000700
0000000700
0000000700
0000000700
0000000600
0000000600
0000000e00
0000000e00
0000000e00
0000000e00
0000000e00
0000000e00
0000000e00
0000000e00
0000000e00
0000000e00
0000000c00
0000001c00
0000001c00
0000001c00
0000001c00
0000001c00
0000001c00
0000001c00
0000001c00
0000001c00
0000001c00
0000001c00
0000001800
0000003800
0000003800
0000003800
0000003800
0000003800
0000003800
0000003800
0000003800
0000003800
0000003800
0000003800
0000007000
0000007000
0000007000
0000007000
0000007000
0000007000
0000007000
0000007000
0000007000
0000007000
0000007000
0000007000
000000e000
000000e000
000000e000
000000e000
000000e000
000000e000
000000e000
000000e000
000000e000
000000e000
000000e000
000001e000
000001c000
000001c000
018001c000
078001c000
0f8001c000
3fc001c000
fdc001c000
71c001c000
40c001c000
00e001c000
00e001c000
006003c000
0070038000
0070038000
0070038000
0038038000
0038038000
0038038000
001c038000
001c038000
001c038000
000c038000
000e078000
000e078000
0006070000
0007070000
0007070000
0003070000
0003870000
0003870000
0001870000
0001c70000
0001c70000
0000c70000
0000cf0000
0000ef0000
0000ee0000
00006e0000
00007e0000
00007e0000
00003e0000
00003e0000
00003e0000
00001e0000
00001e0000
00001e0000
00000e0000
00000e0000
00000c0000
0000040000
0000040000
0000040000
0000020000
0000020000
ENDCHAR
STARTCHAR TexRad5
ENCODING 52
SWIDTH 1143 0
DWIDTH 37 0
BBX 27 132 2 -129
BITMAP
000001c0
000001c0
000001c0
000001c0
000001c0
000001c0
000001c0
000001c0
000001c0
000001c0
000001c0
000001c0
000001c0
000001c0
000001c0
000001c0
000001c0
000001c0
000001c0
000001c0
000001c0
000001c0
000001c0
000001c0
000001c0
000001c0
000001c0
000001c0
000001c0
000001c0
000001c0
000001c0
000001c0
000001c0
000001c0
000001c0
000001c0
000001c0
000001c0
000001c0
000001c0
000001c0
000001c0
000001c0
000001c0
000001c0
000001c0
000001c0
000001c0
000001c0
000001c0
000001c0
000001c0
000001c0
000001c0
000001c0
000001c0
000001c0
000001c0
000001c0
000001c0
000001c0
000001c0
000001c0
000001c0
000001c0
000001c0
000001c0
000001c0
000001c0
000001c0
000001c0
008001c0
078001c0
1fc001c0
7fc001c0
fdc001c0
60e001c0
00e001c0
00e001c0
007001c0
007001c0
007001c0
003801c0
003801c0
003801c0
001c01c0
001c01c0
001c01c0
000e01c0
000e01c0
000e01c0
000701c0
000701c0
000701c0
000381c0
000381c0
000381c0
0001c1c0
0001c1c0
0001c1c0
0000e1c0
0000e1c0
0000e1c0
000071c0
000071c0
000071c0
000039c0
000039c0
000039c0
00001dc0
00001dc0
00001dc0
00000fc0
00000fc0
00000fc0
000007c0
000007c0
000007c0
000003c0
000003c0
000003c0
000001c0
000001c0
000001c0
000000c0
000000c0
000000c0
00000040
00000040
00000040
00000020
ENDCHAR
STARTCHAR TexRad5VertExt
ENCODING 53
SWIDTH 1143 0
DWIDTH 37 0
BBX 3 10 25 -7
BITMAP
e0
e0
e0
e0
e0
e0
e0
e0
e0
e0
ENDCHAR
STARTCHAR TexRad5Top
ENCODING 54
SWIDTH 1143 0
DWIDTH 37 0
BBX 12 11 25 -8
BITMAP
fff0
fff0
fff0
e000
e000
e000
e000
e000
e000
e000
e000
ENDCHAR
STARTCHAR TexRadExtens
ENCODING 55
SWIDTH 255 0
DWIDTH 8 0
BBX 8 3 0 0
BITMAP
ff
ff
ff
ENDCHAR
STARTCHAR LBrace1
ENCODING 56
SWIDTH 600 0
DWIDTH 19 0
BBX 10 26 5 -6
BITMAP
03c0
0fc0
0fc0
1c00
1c00
1c00
1c00
1c00
1c00
1c00
1c00
f800
f000
f800
3c00
1c00
1c00
1c00
1c00
1c00
1c00
1c00
1e00
0fc0
0fc0
03c0
ENDCHAR
STARTCHAR LBrace2
ENCODING 57
SWIDTH 600 0
DWIDTH 19 0
BBX 10 40 5 -13
BITMAP
01c0
07c0
0fc0
1e00
1c00
1c00
1c00
1c00
1c00
1c00
1c00
1c00
1c00
1c00
1c00
1c00
1c00
3c00
f800
f000
f800
3c00
1c00
1c00
1c00
1c00
1c00
1c00
1c00
1c00
1c00
1c00
1c00
1c00
1c00
1c00
1e00
0fc0
07c0
01c0
ENDCHAR
STARTCHAR LBrace3
ENCODING 58
SWIDTH 600 0
DWIDTH 19 0
BBX 12 54 4 -20
BITMAP
0070
01f0
07f0
0780
0f00
0e00
0e00
0e00
0e00
0e00
0e00
0e00
0e00
0e00
0e00
0e00
0e00
0e00
0e00
0e00
0e00
0e00
0e00
0e00
1c00
3c00
f800
f000
f800
3c00
1c00
0e00
0e00
0e00
0e00
0e00
0e00
0e00
0e00
0e00
0e00
0e00
0e00
0e00
0e00
0e00
0e00
0e00
0e00
0f00
0780
07f0
01f0
0070
ENDCHAR
STARTCHAR LBrace4
ENCODING 59
SWIDTH 600 0
DWIDTH 19 0
BBX 16 67 2 -26
BITMAP
000f
007f
00ff
01f0
01c0
03c0
0380
0380
0380
0380
0380
0380
0380
0380
0380
0380
0380
0380
0380
0380
0380
0380
0380
0380
0380
0380
0380
0380
0700
0700
0e00
3e00
f800
f000
f800
3e00
0e00
0700
0700
0380
0380
0380
0380
0380
0380
0380
0380
0380
0380
0380
0380
0380
0380
0380
0380
0380
0380
0380
0380
0380
0380
03c0
01c0
01f0
00ff
007f
000f
ENDCHAR
STARTCHAR RBrace1
ENCODING 60
SWIDTH 600 0
DWIDTH 19 0
BBX 9 26 5 -6
BITMAP
e000
f800
f800
3c00
1c00
1c00
1c00
1c00
1c00
1c00
1c00
1e00
0f80
0780
0f80
1c00
1c00
1c00
1c00
1c00
1c00
1c00
1c00
fc00
f800
e000
ENDCHAR
STARTCHAR RBrace2
ENCODING 61
SWIDTH 600 0
DWIDTH 19 0
BBX 11 40 4 -13
BITMAP
e000
f800
fc00
1e00
0e00
0e00
0e00
0e00
0e00
0e00
0e00
0e00
0e00
0e00
0e00
0e00
0e00
0700
03e0
01e0
03e0
0700
0e00
0e00
0e00
0e00
0e00
0e00
0e00
0e00
0e00
0e00
0e00
0e00
0e00
0e00
1e00
fc00
f800
e000
ENDCHAR
STARTCHAR RBrace3
ENCODING 62
SWIDTH 600 0
DWIDTH 19 0
BBX 13 54 3 -20
BITMAP
e000
f800
fe00
1e00
0f00
0700
0700
0700
0700
0700
0700
0700
0700
0700
0700
0700
0700
0700
0700
0700
0700
0700
0700
0380
03e0
01f8
0078
01f8
03e0
0380
0780
0700
0700
0700
0700
0700
0700
0700
0700
0700
0700
0700
0700
0700
0700
0700
0700
0700
0700
0f00
1e00
fe00
f800
e000
ENDCHAR
STARTCHAR RBrace4
ENCODING 63
SWIDTH 600 0
DWIDTH 19 0
BBX 16 67 1 -26
BITMAP
f000
fe00
ff00
0f80
0380
03c0
01c0
01c0
01c0
01c0
01c0
01c0
01c0
01c0
01c0
01c0
01c0
01c0
01c0
01c0
01c0
01c0
01c0
01c0
01c0
01c0
01c0
01c0
00e0
00e0
0070
007c
001f
000f
001f
007c
0070
00e0
00e0
01c0
01c0
01c0
01c0
01c0
01c0
01c0
01c0
01c0
01c0
01c0
01c0
01c0
01c0
01c0
01c0
01c0
01c0
01c0
01c0
01c0
01c0
03c0
0380
0f80
ff00
fe00
f000
ENDCHAR
STARTCHAR LBracket1
ENCODING 64
SWIDTH 600 0
DWIDTH 19 0
BBX 7 26 8 -6
BITMAP
fe
fe
fe
e0
e0
e0
e0
e0
e0
e0
e0
e0
e0
e0
e0
e0
e0
e0
e0
e0
e0
e0
e0
fe
fe
fe
ENDCHAR
STARTCHAR LBracket2
ENCODING 65
SWIDTH 600 0
DWIDTH 19 0
BBX 7 40 8 -13
BITMAP
fe
fe
fe
e0
e0
e0
e0
e0
e0
e0
e0
e0
e0
e0
e0
e0
e0
e0
e0
e0
e0
e0
e0
e0
e0
e0
e0
e0
e0
e0
e0
e0
e0
e0
e0
e0
e0
fe
fe
fe
ENDCHAR
STARTCHAR LBracket3
ENCODING 66
SWIDTH 600 0
DWIDTH 19 0
BBX 8 54 8 -20
BITMAP
ff
ff
ff
e0
e0
e0
e0
e0
e0
e0
e0
e0
e0
e0
e0
e0
e0
e0
e0
e0
e0
e0
e0
e0
e0
e0
e0
e0
e0
e0
e0
e0
e0
e0
e0
e0
e0
e0
e0
e0
e0
e0
e0
e0
e0
e0
e0
e0
e0
e0
e0
ff
ff
ff
ENDCHAR
STARTCHAR LBracket4
ENCODING 67
SWIDTH 600 0
DWIDTH 19 0
BBX 8 67 8 -26
BITMAP
ff
ff
ff
e0
e0
e0
e0
e0
e0
e0
e0
e0
e0
e0
e0
e0
e0
e0
e0
e0
e0
e0
e0
e0
e0
e0
e0
e0
e0
e0
e0
e0
e0
e0
e0
e0
e0
e0
e0
e0
e0
e0
e0
e0
e0
e0
e0
e0
e0
e0
e0
e0
e0
e0
e0
e0
e0
e0
e0
e0
e0
e0
e0
e0
ff
ff
ff
ENDCHAR
STARTCHAR RBracket1
ENCODING 68
SWIDTH 600 0
DWIDTH 19 0
BBX 7 26 4 -6
BITMAP
fe
fe
fe
0e
0e
0e
0e
0e
0e
0e
0e
0e
0e
0e
0e
0e
0e
0e
0e
0e
0e
0e
0e
fe
fe
fe
ENDCHAR
STARTCHAR RBracket2
ENCODING 69
SWIDTH 600 0
DWIDTH 19 0
BBX 7 40 4 -13
BITMAP
fe
fe
fe
0e
0e
0e
0e
0e
0e
0e
0e
0e
0e
0e
0e
0e
0e
0e
0e
0e
0e
0e
0e
0e
0e
0e
0e
0e
0e
0e
0e
0e
0e
0e
0e
0e
0e
fe
fe
fe
ENDCHAR
STARTCHAR RBracket3
ENCODING 70
SWIDTH 600 0
DWIDTH 19 0
BBX 7 54 4 -20
BITMAP
fe
fe
fe
0e
0e
0e
0e
0e
0e
0e
0e
0e
0e
0e
0e
0e
0e
0e
0e
0e
0e
0e
0e
0e
0e
0e
0e
0e
0e
0e
0e
0e
0e
0e
0e
0e
0e
0e
0e
0e
0e
0e
0e
0e
0e
0e
0e
0e
0e
0e
0e
fe
fe
fe
ENDCHAR
STARTCHAR RBracket4
ENCODING 71
SWIDTH 600 0
DWIDTH 19 0
BBX 8 67 3 -26
BITMAP
ff
ff
ff
07
07
07
07
07
07
07
07
07
07
07
07
07
07
07
07
07
07
07
07
07
07
07
07
07
07
07
07
07
07
07
07
07
07
07
07
07
07
07
07
07
07
07
07
07
07
07
07
07
07
07
07
07
07
07
07
07
07
07
07
07
ff
ff
ff
ENDCHAR
STARTCHAR LParen1
ENCODING 72
SWIDTH 600 0
DWIDTH 19 0
BBX 8 26 8 -6
BITMAP
07
0e
1c
1c
38
38
78
70
70
f0
e0
e0
e0
e0
e0
e0
e0
70
70
70
38
38
1c
1c
0e
07
ENDCHAR
STARTCHAR LParen2
ENCODING 73
SWIDTH 600 0
DWIDTH 19 0
BBX 8 40 8 -13
BITMAP
07
0e
0e
0c
1c
1c
18
38
38
30
70
70
70
70
e0
e0
e0
e0
e0
e0
e0
e0
e0
e0
e0
e0
70
70
70
70
30
38
38
38
1c
1c
0c
0e
0e
07
ENDCHAR
STARTCHAR LParen3
ENCODING 74
SWIDTH 600 0
DWIDTH 19 0
BBX 8 54 8 -20
BITMAP
07
07
06
0e
0e
1c
1c
1c
38
38
38
38
70
70
70
70
70
70
e0
e0
e0
e0
e0
e0
e0
e0
e0
e0
e0
e0
e0
e0
e0
e0
e0
e0
70
70
70
70
70
70
38
38
38
38
1c
1c
1c
0e
0e
0f
07
07
ENDCHAR
STARTCHAR LParen4
ENCODING 75
SWIDTH 600 0
DWIDTH 19 0
BBX 9 66 8 -26
BITMAP
0380
0700
0700
0600
0e00
0e00
0e00
1c00
1c00
1c00
3800
3800
3800
3800
3800
7000
7000
7000
7000
7000
7000
7000
e000
e000
e000
e000
e000
e000
e000
e000
e000
e000
e000
e000
e000
e000
e000
e000
e000
e000
e000
e000
e000
7000
7000
7000
7000
7000
7000
7000
7000
3800
3800
3800
3800
1c00
1c00
1c00
1c00
0e00
0e00
0e00
0600
0700
0700
0380
ENDCHAR
STARTCHAR RParen1
ENCODING 76
SWIDTH 600 0
DWIDTH 19 0
BBX 8 26 3 -6
BITMAP
e0
70
38
38
1c
1c
0e
0e
0e
07
07
07
07
07
07
07
07
0e
0e
0e
1c
1c
38
38
70
e0
ENDCHAR
STARTCHAR RParen2
ENCODING 77
SWIDTH 600 0
DWIDTH 19 0
BBX 8 40 3 -13
BITMAP
e0
70
70
30
38
38
18
1c
1c
0c
0e
0e
0e
0e
07
07
07
07
07
07
07
07
07
07
07
07
0e
0e
0e
0e
0c
1c
1c
1c
38
38
30
70
70
e0
ENDCHAR
STARTCHAR RParen3
ENCODING 78
SWIDTH 600 0
DWIDTH 19 0
BBX 8 54 3 -20
BITMAP
e0
60
70
70
30
38
38
18
1c
1c
1c
1c
0e
0e
0e
0e
0e
0e
07
07
07
07
07
07
07
07
07
07
07
07
07
07
07
07
07
07
0e
0e
0e
0e
0e
0e
0c
1c
1c
1c
18
38
38
30
70
70
60
e0
ENDCHAR
STARTCHAR RParen4
ENCODING 79
SWIDTH 600 0
DWIDTH 19 0
BBX 9 66 2 -26
BITMAP
e000
7000
7000
3000
3800
3800
3800
1c00
1c00
1c00
1e00
0e00
0e00
0e00
0e00
0700
0700
0700
0700
0700
0700
0700
0780
0380
0380
0380
0380
0380
0380
0380
0380
0380
0380
0380
0380
0380
0380
0380
0380
0380
0380
0380
0380
0700
0700
0700
0700
0700
0700
0700
0700
0e00
0e00
0e00
0e00
1c00
1c00
1c00
1c00
3800
3800
3800
3000
7000
7000
e000
ENDCHAR
STARTCHAR DblLBracket1
ENCODING 80
SWIDTH 600 0
DWIDTH 19 0
BBX 13 26 5 -6
BITMAP
fff8
fff8
fff8
e380
e380
e380
e380
e380
e380
e380
e380
e380
e380
e380
e380
e380
e380
e380
e380
e380
e380
e380
e380
fff8
fff8
fff8
ENDCHAR
STARTCHAR DblLBracket2
ENCODING 81
SWIDTH 600 0
DWIDTH 19 0
BBX 13 40 5 -13
BITMAP
fff8
fff8
fff8
e380
e380
e380
e380
e380
e380
e380
e380
e380
e380
e380
e380
e380
e380
e380
e380
e380
e380
e380
e380
e380
e380
e380
e380
e380
e380
e380
e380
e380
e380
e380
e380
e380
e380
fff8
fff8
fff8
ENDCHAR
STARTCHAR DblLBracket3
ENCODING 82
SWIDTH 600 0
DWIDTH 19 0
BBX 13 54 5 -20
BITMAP
fff8
fff8
fff8
e380
e380
e380
e380
e380
e380
e380
e380
e380
e380
e380
e380
e380
e380
e380
e380
e380
e380
e380
e380
e380
e380
e380
e380
e380
e380
e380
e380
e380
e380
e380
e380
e380
e380
e380
e380
e380
e380
e380
e380
e380
e380
e380
e380
e380
e380
e380
e380
fff8
fff8
fff8
ENDCHAR
STARTCHAR DblLBracket4
ENCODING 83
SWIDTH 600 0
DWIDTH 19 0
BBX 13 67 5 -26
BITMAP
fff8
fff8
fff8
e380
e380
e380
e380
e380
e380
e380
e380
e380
e380
e380
e380
e380
e380
e380
e380
e380
e380
e380
e380
e380
e380
e380
e380
e380
e380
e380
e380
e380
e380
e380
e380
e380
e380
e380
e380
e380
e380
e380
e380
e380
e380
e380
e380
e380
e380
e380
e380
e380
e380
e380
e380
e380
e380
e380
e380
e380
e380
e380
e380
e380
fff8
fff8
fff8
ENDCHAR
STARTCHAR DblRBracket1
ENCODING 84
SWIDTH 600 0
DWIDTH 19 0
BBX 13 26 1 -6
BITMAP
fff8
fff8
fff8
0e38
0e38
0e38
0e38
0e38
0e38
0e38
0e38
0e38
0e38
0e38
0e38
0e38
0e38
0e38
0e38
0e38
0e38
0e38
0e38
fff8
fff8
fff8
ENDCHAR
STARTCHAR DblRBracket2
ENCODING 85
SWIDTH 600 0
DWIDTH 19 0
BBX 13 40 1 -13
BITMAP
fff8
fff8
fff8
0e38
0e38
0e38
0e38
0e38
0e38
0e38
0e38
0e38
0e38
0e38
0e38
0e38
0e38
0e38
0e38
0e38
0e38
0e38
0e38
0e38
0e38
0e38
0e38
0e38
0e38
0e38
0e38
0e38
0e38
0e38
0e38
0e38
0e38
fff8
fff8
fff8
ENDCHAR
STARTCHAR DblRBracket3
ENCODING 86
SWIDTH 600 0
DWIDTH 19 0
BBX 13 54 1 -20
BITMAP
fff8
fff8
fff8
0e38
0e38
0e38
0e38
0e38
0e38
0e38
0e38
0e38
0e38
0e38
0e38
0e38
0e38
0e38
0e38
0e38
0e38
0e38
0e38
0e38
0e38
0e38
0e38
0e38
0e38
0e38
0e38
0e38
0e38
0e38
0e38
0e38
0e38
0e38
0e38
0e38
0e38
0e38
0e38
0e38
0e38
0e38
0e38
0e38
0e38
0e38
0e38
fff8
fff8
fff8
ENDCHAR
STARTCHAR DblRBracket4
ENCODING 87
SWIDTH 600 0
DWIDTH 19 0
BBX 13 67 1 -26
BITMAP
fff8
fff8
fff8
0e38
0e38
0e38
0e38
0e38
0e38
0e38
0e38
0e38
0e38
0e38
0e38
0e38
0e38
0e38
0e38
0e38
0e38
0e38
0e38
0e38
0e38
0e38
0e38
0e38
0e38
0e38
0e38
0e38
0e38
0e38
0e38
0e38
0e38
0e38
0e38
0e38
0e38
0e38
0e38
0e38
0e38
0e38
0e38
0e38
0e38
0e38
0e38
0e38
0e38
0e38
0e38
0e38
0e38
0e38
0e38
0e38
0e38
0e38
0e38
0e38
fff8
fff8
fff8
ENDCHAR
STARTCHAR LAngleBracket1
ENCODING 88
SWIDTH 600 0
DWIDTH 19 0
BBX 12 26 4 -6
BITMAP
00f0
00e0
01c0
0380
0380
0700
0f00
0e00
1c00
1c00
3800
7000
f000
7000
7000
3800
1c00
1c00
0e00
0f00
0700
0380
0380
01c0
00e0
00f0
ENDCHAR
STARTCHAR LAngleBracket2
ENCODING 89
SWIDTH 600 0
DWIDTH 19 0
BBX 10 40 5 -13
BITMAP
01c0
0380
0380
0380
0700
0700
0700
0e00
0e00
0e00
1c00
1c00
1c00
3800
3800
3800
7000
7000
7000
e000
e000
7000
7000
7000
3800
3800
3800
1c00
1c00
1c00
0e00
0e00
0e00
0700
0700
0700
0380
0380
0380
01c0
ENDCHAR
STARTCHAR LAngleBracket3
ENCODING 90
SWIDTH 600 0
DWIDTH 19 0
BBX 10 54 5 -20
BITMAP
01c0
0180
0380
0380
0380
0300
0700
0700
0700
0600
0e00
0e00
0e00
0c00
1c00
1c00
1c00
1800
3800
3800
3800
3000
7000
7000
7000
6000
e000
e000
6000
7000
7000
7000
3000
3800
3800
3800
1800
1c00
1c00
1c00
0c00
0e00
0e00
0e00
0600
0700
0700
0700
0300
0380
0380
0380
0180
01c0
ENDCHAR
STARTCHAR LAngleBracket4
ENCODING 91
SWIDTH 600 0
DWIDTH 19 0
BBX 10 67 5 -26
BITMAP
01c0
01c0
0180
0380
0380
0380
0300
0300
0700
0700
0700
0600
0e00
0e00
0e00
0e00
0c00
1c00
1c00
1c00
1c00
1800
3800
3800
3800
3800
3000
7000
7000
7000
7000
6000
e000
e000
e000
6000
7000
7000
7000
7000
3000
3800
3800
3800
3800
1800
1c00
1c00
1c00
1c00
0c00
0e00
0e00
0e00
0e00
0600
0700
0700
0700
0300
0300
0380
0380
0380
0180
01c0
01c0
ENDCHAR
STARTCHAR RAngleBracket1
ENCODING 92
SWIDTH 600 0
DWIDTH 19 0
BBX 12 26 3 -6
BITMAP
f000
7000
3800
1c00
1c00
0e00
0f00
0700
0380
0380
01c0
00e0
00f0
00e0
00e0
01c0
0380
0380
0700
0f00
0e00
1c00
1c00
3800
7000
f000
ENDCHAR
STARTCHAR RAngleBracket2
ENCODING 93
SWIDTH 600 0
DWIDTH 19 0
BBX 10 40 5 -13
BITMAP
e000
7000
7000
7000
3800
3800
3800
1c00
1c00
1c00
0e00
0e00
0e00
0700
0700
0700
0380
0380
0380
01c0
01c0
0380
0380
0380
0700
0700
0700
0e00
0e00
0e00
1c00
1c00
1c00
3800
3800
3800
7000
7000
7000
e000
ENDCHAR
STARTCHAR RAngleBracket3
ENCODING 94
SWIDTH 600 0
DWIDTH 19 0
BBX 10 54 5 -20
BITMAP
e000
6000
7000
7000
7000
3000
3800
3800
3800
1800
1c00
1c00
1c00
0c00
0e00
0e00
0e00
0600
0700
0700
0700
0300
0380
0380
0380
0180
01c0
01c0
0180
0380
0380
0380
0300
0700
0700
0700
0600
0e00
0e00
0e00
0c00
1c00
1c00
1c00
1800
3800
3800
3800
3000
7000
7000
7000
6000
e000
ENDCHAR
STARTCHAR RAngleBracket4
ENCODING 95
SWIDTH 600 0
DWIDTH 19 0
BBX 10 67 4 -26
BITMAP
e000
e000
6000
7000
7000
7000
3000
3000
3800
3800
3800
1800
1c00
1c00
1c00
1c00
0c00
0e00
0e00
0e00
0e00
0600
0700
0700
0700
0700
0300
0380
0380
0380
0380
0180
01c0
01c0
01c0
0180
0380
0380
0380
0380
0300
0700
0700
0700
0700
0600
0e00
0e00
0e00
0e00
0c00
1c00
1c00
1c00
1c00
1800
3800
3800
3800
3000
3000
7000
7000
7000
6000
e000
e000
ENDCHAR
STARTCHAR LCeiling1
ENCODING 96
SWIDTH 600 0
DWIDTH 19 0
BBX 9 26 7 -6
BITMAP
ff80
ff80
ff80
e000
e000
e000
e000
e000
e000
e000
e000
e000
e000
e000
e000
e000
e000
e000
e000
e000
e000
e000
e000
e000
e000
e000
ENDCHAR
STARTCHAR LCeiling2
ENCODING 97
SWIDTH 600 0
DWIDTH 19 0
BBX 9 40 7 -13
BITMAP
ff80
ff80
ff80
e000
e000
e000
e000
e000
e000
e000
e000
e000
e000
e000
e000
e000
e000
e000
e000
e000
e000
e000
e000
e000
e000
e000
e000
e000
e000
e000
e000
e000
e000
e000
e000
e000
e000
e000
e000
e000
ENDCHAR
STARTCHAR LCeiling3
ENCODING 98
SWIDTH 600 0
DWIDTH 19 0
BBX 9 54 7 -20
BITMAP
ff80
ff80
ff80
e000
e000
e000
e000
e000
e000
e000
e000
e000
e000
e000
e000
e000
e000
e000
e000
e000
e000
e000
e000
e000
e000
e000
e000
e000
e000
e000
e000
e000
e000
e000
e000
e000
e000
e000
e000
e000
e000
e000
e000
e000
e000
e000
e000
e000
e000
e000
e000
e000
e000
e000
ENDCHAR
STARTCHAR LCeiling4
ENCODING 99
SWIDTH 600 0
DWIDTH 19 0
BBX 9 67 7 -26
BITMAP
ff80
ff80
ff80
e000
e000
e000
e000
e000
e000
e000
e000
e000
e000
e000
e000
e000
e000
e000
e000
e000
e000
e000
e000
e000
e000
e000
e000
e000
e000
e000
e000
e000
e000
e000
e000
e000
e000
e000
e000
e000
e000
e000
e000
e000
e000
e000
e000
e000
e000
e000
e000
e000
e000
e000
e000
e000
e000
e000
e000
e000
e000
e000
e000
e000
e000
e000
e000
ENDCHAR
STARTCHAR LFloor1
ENCODING 100
SWIDTH 600 0
DWIDTH 19 0
BBX 9 26 7 -6
BITMAP
e000
e000
e000
e000
e000
e000
e000
e000
e000
e000
e000
e000
e000
e000
e000
e000
e000
e000
e000
e000
e000
e000
e000
ff80
ff80
ff80
ENDCHAR
STARTCHAR LFloor2
ENCODING 101
SWIDTH 600 0
DWIDTH 19 0
BBX 9 40 7 -13
BITMAP
e000
e000
e000
e000
e000
e000
e000
e000
e000
e000
e000
e000
e000
e000
e000
e000
e000
e000
e000
e000
e000
e000
e000
e000
e000
e000
e000
e000
e000
e000
e000
e000
e000
e000
e000
e000
e000
ff80
ff80
ff80
ENDCHAR
STARTCHAR LFloor3
ENCODING 102
SWIDTH 600 0
DWIDTH 19 0
BBX 9 54 7 -20
BITMAP
e000
e000
e000
e000
e000
e000
e000
e000
e000
e000
e000
e000
e000
e000
e000
e000
e000
e000
e000
e000
e000
e000
e000
e000
e000
e000
e000
e000
e000
e000
e000
e000
e000
e000
e000
e000
e000
e000
e000
e000
e000
e000
e000
e000
e000
e000
e000
e000
e000
e000
e000
ff80
ff80
ff80
ENDCHAR
STARTCHAR LFloor4
ENCODING 103
SWIDTH 600 0
DWIDTH 19 0
BBX 9 67 7 -26
BITMAP
e000
e000
e000
e000
e000
e000
e000
e000
e000
e000
e000
e000
e000
e000
e000
e000
e000
e000
e000
e000
e000
e000
e000
e000
e000
e000
e000
e000
e000
e000
e000
e000
e000
e000
e000
e000
e000
e000
e000
e000
e000
e000
e000
e000
e000
e000
e000
e000
e000
e000
e000
e000
e000
e000
e000
e000
e000
e000
e000
e000
e000
e000
e000
e000
ff80
ff80
ff80
ENDCHAR
STARTCHAR LFlrClngExtens
ENCODING 104
SWIDTH 600 0
DWIDTH 19 0
BBX 3 10 7 0
BITMAP
e0
e0
e0
e0
e0
e0
e0
e0
e0
e0
ENDCHAR
STARTCHAR LParenTop
ENCODING 105
SWIDTH 600 0
DWIDTH 19 0
BBX 9 27 8 -2
BITMAP
0380
0700
0600
0e00
0c00
1c00
1c00
3800
3800
3800
7000
7000
7000
7000
7000
e000
e000
e000
e000
e000
e000
e000
e000
e000
e000
e000
e000
ENDCHAR
STARTCHAR LParenExtens
ENCODING 106
SWIDTH 600 0
DWIDTH 19 0
BBX 3 10 8 0
BITMAP
e0
e0
e0
e0
e0
e0
e0
e0
e0
e0
ENDCHAR
STARTCHAR LParenBottom
ENCODING 107
SWIDTH 600 0
DWIDTH 19 0
BBX 9 27 8 0
BITMAP
e000
e000
e000
e000
e000
e000
e000
e000
e000
e000
e000
6000
7000
7000
7000
7000
7000
3800
3800
3800
1c00
1c00
0c00
0e00
0600
0700
0380
ENDCHAR
STARTCHAR LBraceTop
ENCODING 108
SWIDTH 600 0
DWIDTH 19 0
BBX 10 22 8 -2
BITMAP
03c0
0fc0
3fc0
3c00
7800
7000
e000
e000
e000
e000
e000
e000
e000
e000
e000
e000
e000
e000
e000
e000
e000
e000
ENDCHAR
STARTCHAR LBraceMiddle
ENCODING 109
SWIDTH 600 0
DWIDTH 19 0
BBX 10 24 1 -5
BITMAP
01c0
01c0
01c0
01c0
01c0
01c0
0380
0380
0700
1f00
fe00
f800
fc00
3f00
0f00
0780
0380
03c0
01c0
01c0
01c0
01c0
01c0
01c0
ENDCHAR
STARTCHAR LBraceBottom
ENCODING 110
SWIDTH 600 0
DWIDTH 19 0
BBX 10 22 8 0
BITMAP
e000
e000
e000
e000
e000
e000
e000
e000
e000
e000
e000
e000
e000
e000
e000
e000
7000
7800
3c00
3fc0
1fc0
03c0
ENDCHAR
STARTCHAR BraceExtens
ENCODING 111
SWIDTH 600 0
DWIDTH 19 0
BBX 3 10 8 0
BITMAP
e0
e0
e0
e0
e0
e0
e0
e0
e0
e0
ENDCHAR
STARTCHAR RCeiling1
ENCODING 112
SWIDTH 600 0
DWIDTH 19 0
BBX 9 26 3 -6
BITMAP
ff80
ff80
ff80
0380
0380
0380
0380
0380
0380
0380
0380
0380
0380
0380
0380
0380
0380
0380
0380
0380
0380
0380
0380
0380
0380
0380
ENDCHAR
STARTCHAR RCeiling2
ENCODING 113
SWIDTH 600 0
DWIDTH 19 0
BBX 9 40 3 -13
BITMAP
ff80
ff80
ff80
0380
0380
0380
0380
0380
0380
0380
0380
0380
0380
0380
0380
0380
0380
0380
0380
0380
0380
0380
0380
0380
0380
0380
0380
0380
0380
0380
0380
0380
0380
0380
0380
0380
0380
0380
0380
0380
ENDCHAR
STARTCHAR RCeiling3
ENCODING 114
SWIDTH 600 0
DWIDTH 19 0
BBX 9 54 3 -20
BITMAP
ff80
ff80
ff80
0380
0380
0380
0380
0380
0380
0380
0380
0380
0380
0380
0380
0380
0380
0380
0380
0380
0380
0380
0380
0380
0380
0380
0380
0380
0380
0380
0380
0380
0380
0380
0380
0380
0380
0380
0380
0380
0380
0380
0380
0380
0380
0380
0380
0380
0380
0380
0380
0380
0380
0380
ENDCHAR
STARTCHAR RCeiling4
ENCODING 115
SWIDTH 600 0
DWIDTH 19 0
BBX 9 67 3 -26
BITMAP
ff80
ff80
ff80
0380
0380
0380
0380
0380
0380
0380
0380
0380
0380
0380
0380
0380
0380
0380
0380
0380
0380
0380
0380
0380
0380
0380
0380
0380
0380
0380
0380
0380
0380
0380
0380
0380
0380
0380
0380
0380
0380
0380
0380
0380
0380
0380
0380
0380
0380
0380
0380
0380
0380
0380
0380
0380
0380
0380
0380
0380
0380
0380
0380
0380
0380
0380
0380
ENDCHAR
STARTCHAR RFloor1
ENCODING 116
SWIDTH 600 0
DWIDTH 19 0
BBX 9 26 3 -6
BITMAP
0380
0380
0380
0380
0380
0380
0380
0380
0380
0380
0380
0380
0380
0380
0380
0380
0380
0380
0380
0380
0380
0380
0380
ff80
ff80
ff80
ENDCHAR
STARTCHAR RFloor2
ENCODING 117
SWIDTH 600 0
DWIDTH 19 0
BBX 9 40 3 -13
BITMAP
0380
0380
0380
0380
0380
0380
0380
0380
0380
0380
0380
0380
0380
0380
0380
0380
0380
0380
0380
0380
0380
0380
0380
0380
0380
0380
0380
0380
0380
0380
0380
0380
0380
0380
0380
0380
0380
ff80
ff80
ff80
ENDCHAR
STARTCHAR RFloor3
ENCODING 118
SWIDTH 600 0
DWIDTH 19 0
BBX 9 54 3 -20
BITMAP
0380
0380
0380
0380
0380
0380
0380
0380
0380
0380
0380
0380
0380
0380
0380
0380
0380
0380
0380
0380
0380
0380
0380
0380
0380
0380
0380
0380
0380
0380
0380
0380
0380
0380
0380
0380
0380
0380
0380
0380
0380
0380
0380
0380
0380
0380
0380
0380
0380
0380
0380
ff80
ff80
ff80
ENDCHAR
STARTCHAR RFloor4
ENCODING 119
SWIDTH 600 0
DWIDTH 19 0
BBX 9 67 3 -26
BITMAP
0380
0380
0380
0380
0380
0380
0380
0380
0380
0380
0380
0380
0380
0380
0380
0380
0380
0380
0380
0380
0380
0380
0380
0380
0380
0380
0380
0380
0380
0380
0380
0380
0380
0380
0380
0380
0380
0380
0380
0380
0380
0380
0380
0380
0380
0380
0380
0380
0380
0380
0380
0380
0380
0380
0380
0380
0380
0380
0380
0380
0380
0380
0380
0380
ff80
ff80
ff80
ENDCHAR
STARTCHAR RFlrClngExtens
ENCODING 120
SWIDTH 600 0
DWIDTH 19 0
BBX 3 10 9 0
BITMAP
e0
e0
e0
e0
e0
e0
e0
e0
e0
e0
ENDCHAR
STARTCHAR RParenTop
ENCODING 121
SWIDTH 600 0
DWIDTH 19 0
BBX 9 27 2 -2
BITMAP
e000
7000
3000
3800
1800
1c00
1c00
0e00
0e00
0e00
0700
0700
0700
0700
0700
0380
0380
0380
0380
0380
0380
0380
0380
0380
0380
0380
0380
ENDCHAR
STARTCHAR RParenExtens
ENCODING 122
SWIDTH 600 0
DWIDTH 19 0
BBX 3 10 8 0
BITMAP
e0
e0
e0
e0
e0
e0
e0
e0
e0
e0
ENDCHAR
STARTCHAR RParenBottom
ENCODING 123
SWIDTH 600 0
DWIDTH 19 0
BBX 9 27 2 0
BITMAP
0380
0380
0380
0380
0380
0380
0380
0380
0380
0380
0380
0380
0700
0700
0700
0700
0700
0e00
0e00
0e00
1c00
1c00
1800
3800
3000
7000
e000
ENDCHAR
STARTCHAR RBraceTop
ENCODING 124
SWIDTH 600 0
DWIDTH 19 0
BBX 10 22 1 -2
BITMAP
f000
fc00
ff00
0f00
0780
0380
03c0
01c0
01c0
01c0
01c0
01c0
01c0
01c0
01c0
01c0
01c0
01c0
01c0
01c0
01c0
01c0
ENDCHAR
STARTCHAR RBraceMiddle
ENCODING 125
SWIDTH 600 0
DWIDTH 19 0
BBX 10 24 8 -5
BITMAP
e000
e000
e000
e000
e000
e000
7000
7000
3800
3e00
1fc0
07c0
0fc0
3e00
3c00
7800
7000
e000
e000
e000
e000
e000
e000
e000
ENDCHAR
STARTCHAR RBraceBottom
ENCODING 126
SWIDTH 600 0
DWIDTH 19 0
BBX 10 22 1 0
BITMAP
01c0
01c0
01c0
01c0
01c0
01c0
01c0
01c0
01c0
01c0
01c0
01c0
01c0
01c0
01c0
03c0
0380
0780
0f00
ff00
fc00
f000
ENDCHAR
STARTCHAR LBracketTop
ENCODING 128
SWIDTH 600 0
DWIDTH 19 0
BBX 8 5 8 0
BITMAP
ff
ff
ff
e0
e0
ENDCHAR
STARTCHAR LBracketExtens
ENCODING 129
SWIDTH 600 0
DWIDTH 19 0
BBX 3 10 8 0
BITMAP
e0
e0
e0
e0
e0
e0
e0
e0
e0
e0
ENDCHAR
STARTCHAR LBracketBottom
ENCODING 130
SWIDTH 600 0
DWIDTH 19 0
BBX 8 5 8 0
BITMAP
e0
e0
ff
ff
ff
ENDCHAR
STARTCHAR RBracketTop
ENCODING 131
SWIDTH 600 0
DWIDTH 19 0
BBX 8 5 3 0
BITMAP
ff
ff
ff
07
07
ENDCHAR
STARTCHAR RBracketExtens
ENCODING 132
SWIDTH 600 0
DWIDTH 19 0
BBX 3 10 8 0
BITMAP
e0
e0
e0
e0
e0
e0
e0
e0
e0
e0
ENDCHAR
STARTCHAR RBracketBottom
ENCODING 133
SWIDTH 600 0
DWIDTH 19 0
BBX 8 5 3 0
BITMAP
07
07
ff
ff
ff
ENDCHAR
STARTCHAR DblLBracketBottom
ENCODING 134
SWIDTH 600 0
DWIDTH 19 0
BBX 13 5 5 0
BITMAP
e380
e380
fff8
fff8
fff8
ENDCHAR
STARTCHAR DblLBracketExtens
ENCODING 135
SWIDTH 600 0
DWIDTH 19 0
BBX 9 10 5 0
BITMAP
e380
e380
e380
e380
e380
e380
e380
e380
e380
e380
ENDCHAR
STARTCHAR DblLBracketTop
ENCODING 136
SWIDTH 600 0
DWIDTH 19 0
BBX 13 5 5 0
BITMAP
fff8
fff8
fff8
e380
e380
ENDCHAR
STARTCHAR DblRBracketBottom
ENCODING 137
SWIDTH 600 0
DWIDTH 19 0
BBX 13 5 1 0
BITMAP
0e38
0e38
fff8
fff8
fff8
ENDCHAR
STARTCHAR DblRBracketExtens
ENCODING 138
SWIDTH 600 0
DWIDTH 19 0
BBX 9 10 5 0
BITMAP
e380
e380
e380
e380
e380
e380
e380
e380
e380
e380
ENDCHAR
STARTCHAR DblRBracketTop
ENCODING 139
SWIDTH 600 0
DWIDTH 19 0
BBX 13 5 1 0
BITMAP
fff8
fff8
fff8
0e38
0e38
ENDCHAR
STARTCHAR LeftHook
ENCODING 140
SWIDTH 300 0
DWIDTH 10 0
BBX 10 25 0 0
BITMAP
ffc0
ffc0
ffc0
e000
e000
e000
e000
e000
e000
e000
e000
e000
e000
e000
e000
e000
e000
e000
e000
e000
e000
e000
e000
e000
e000
ENDCHAR
STARTCHAR HookExt
ENCODING 141
SWIDTH 300 0
DWIDTH 10 0
BBX 10 3 0 22
BITMAP
ffc0
ffc0
ffc0
ENDCHAR
STARTCHAR RightHook
ENCODING 142
SWIDTH 300 0
DWIDTH 10 0
BBX 10 25 0 0
BITMAP
ffc0
ffc0
ffc0
01c0
01c0
01c0
01c0
01c0
01c0
01c0
01c0
01c0
01c0
01c0
01c0
01c0
01c0
01c0
01c0
01c0
01c0
01c0
01c0
01c0
01c0
ENDCHAR
STARTCHAR Radical1
ENCODING 143
SWIDTH 918 0
DWIDTH 29 0
BBX 28 36 2 -26
BITMAP
000000f0
000000f0
000001f0
000001c0
000001c0
00000380
00000380
00000380
00000700
00000700
00000700
00000600
00000e00
00800e00
03800c00
1f801c00
7fc01c00
fdc01c00
61e03800
00e03800
00f03800
00703000
00787000
00387000
003c6000
001ce000
001ce000
000ee000
000fc000
0007c000
0007c000
00038000
00038000
00018000
00010000
00008000
ENDCHAR
STARTCHAR Slash1
ENCODING 144
SWIDTH 600 0
DWIDTH 19 0
BBX 13 23 3 -3
BITMAP
0020
0038
0070
0070
00e0
00e0
01c0
01c0
0380
0380
0700
0700
0700
0e00
0e00
1c00
1c00
3800
3800
7000
7000
e000
2000
ENDCHAR
STARTCHAR Slash2
ENCODING 145
SWIDTH 600 0
DWIDTH 19 0
BBX 21 41 -1 -12
BITMAP
000020
000038
000070
000070
0000e0
0000e0
0001c0
0001c0
000380
000380
000380
000700
000700
000e00
000e00
001c00
001c00
003800
003800
007000
007000
007000
00e000
00e000
01c000
01c000
038000
038000
070000
070000
0e0000
0e0000
0e0000
1c0000
1c0000
380000
380000
700000
700000
e00000
200000
ENDCHAR
STARTCHAR Slash3
ENCODING 146
SWIDTH 600 0
DWIDTH 19 0
BBX 27 54 -4 -19
BITMAP
00000080
000000e0
000001c0
000001c0
00000380
00000380
00000700
00000700
00000e00
00000e00
00000e00
00001c00
00001c00
00003800
00003800
00007000
00007000
0000e000
0000e000
0001c000
0001c000
00018000
00038000
00038000
00070000
00070000
000e0000
000e0000
001c0000
001c0000
00380000
00380000
00300000
00700000
00700000
00e00000
00e00000
01c00000
01c00000
03800000
03800000
07000000
07000000
0e000000
0e000000
0e000000
1c000000
1c000000
38000000
38000000
70000000
70000000
e0000000
20000000
ENDCHAR
STARTCHAR Slash4
ENCODING 147
SWIDTH 600 0
DWIDTH 19 0
BBX 33 67 -7 -25
BITMAP
0000000200
0000000380
0000000700
0000000700
0000000e00
0000000e00
0000001c00
0000001c00
0000003800
0000003800
0000003800
0000007000
0000007000
000000e000
000000e000
000001c000
000001c000
0000038000
0000038000
0000070000
0000070000
0000060000
00000e0000
00000e0000
00001c0000
00001c0000
0000380000
0000380000
0000700000
0000700000
0000e00000
0000e00000
0001c00000
0001c00000
0001c00000
0003800000
0003800000
0007000000
0007000000
000e000000
000e000000
001c000000
001c000000
0038000000
0038000000
0030000000
0070000000
0070000000
00e0000000
00e0000000
01c0000000
01c0000000
0380000000
0380000000
0700000000
0700000000
0e00000000
0e00000000
0e00000000
1c00000000
1c00000000
3800000000
3800000000
7000000000
7000000000
e000000000
2000000000
ENDCHAR
STARTCHAR BackSlash1
ENCODING 148
SWIDTH 600 0
DWIDTH 19 0
BBX 13 23 3 -3
BITMAP
2000
e000
7000
7000
3800
3800
1c00
1c00
0e00
0e00
0700
0700
0700
0380
0380
01c0
01c0
00e0
00e0
0070
0070
0038
0020
ENDCHAR
STARTCHAR BackSlash2
ENCODING 149
SWIDTH 600 0
DWIDTH 19 0
BBX 21 41 -1 -12
BITMAP
200000
e00000
700000
700000
380000
380000
1c0000
1c0000
0e0000
0e0000
0e0000
070000
070000
038000
038000
01c000
01c000
00e000
00e000
007000
007000
007000
003800
003800
001c00
001c00
000e00
000e00
000700
000700
000380
000380
000380
0001c0
0001c0
0000e0
0000e0
000070
000070
000038
000020
ENDCHAR
STARTCHAR BackSlash3
ENCODING 150
SWIDTH 600 0
DWIDTH 19 0
BBX 27 54 -4 -19
BITMAP
20000000
e0000000
70000000
70000000
38000000
38000000
1c000000
1c000000
0e000000
0e000000
0e000000
07000000
07000000
03800000
03800000
01c00000
01c00000
00e00000
00e00000
00700000
00700000
00300000
00380000
00380000
001c0000
001c0000
000e0000
000e0000
00070000
00070000
00038000
00038000
00018000
0001c000
0001c000
0000e000
0000e000
00007000
00007000
00003800
00003800
00001c00
00001c00
00000e00
00000e00
00000e00
00000700
00000700
00000380
00000380
000001c0
000001c0
000000e0
00000080
ENDCHAR
STARTCHAR BackSlash4
ENCODING 151
SWIDTH 600 0
DWIDTH 19 0
BBX 33 67 -7 -25
BITMAP
2000000000
e000000000
7000000000
7000000000
3800000000
3800000000
1c00000000
1c00000000
0e00000000
0e00000000
0e00000000
0700000000
0700000000
0380000000
0380000000
01c0000000
01c0000000
00e0000000
00e0000000
0070000000
0070000000
0030000000
0038000000
0038000000
001c000000
001c000000
000e000000
000e000000
0007000000
0007000000
0003800000
0003800000
0001c00000
0001c00000
0001c00000
0000e00000
0000e00000
0000700000
0000700000
0000380000
0000380000
00001c0000
00001c0000
00000e0000
00000e0000
0000060000
0000070000
0000070000
0000038000
0000038000
000001c000
000001c000
000000e000
000000e000
0000007000
0000007000
0000003800
0000003800
0000003800
0000001c00
0000001c00
0000000e00
0000000e00
0000000700
0000000700
0000000380
0000000200
ENDCHAR
STARTCHAR ContourIntegral
ENCODING 152
SWIDTH 447 0
DWIDTH 14 0
BBX 20 40 1 -10
BITMAP
001f80
003fc0
007fe0
0070f0
00f040
00e000
00e000
00e000
00e000
00e000
00e000
00e000
03fc00
0fff00
1ce780
38e180
30e0c0
70e0e0
60e060
60e060
60e060
60e060
60e060
30e0c0
38e1c0
1ce380
0eef00
07fe00
01f000
00e000
00e000
00e000
00e000
00e000
00e000
21e000
73c000
ffc000
3f8000
1e0000
ENDCHAR
STARTCHAR DblContInteg
ENCODING 153
SWIDTH 723 0
DWIDTH 23 0
BBX 28 40 1 -10
BITMAP
001f0fc0
003f9fe0
007f3ff0
00703870
00e07820
00e07000
00e07000
00e07000
00e07000
00e07000
00e07000
01fffc00
07ffff00
0ee07780
1ce071c0
38e070e0
30e07060
60e07070
60e07030
60e07030
60e07030
60e07030
60e07070
30e07060
38e070e0
1ce071c0
0ee07780
07ffff00
01fffc00
00e07000
00e07000
00e07000
00e07000
00e07000
00e07000
21e0f000
73c9e000
ffcfe000
3f9fc000
1e0f0000
ENDCHAR
STARTCHAR CntrClckwContInteg
ENCODING 154
SWIDTH 447 0
DWIDTH 14 0
BBX 22 40 1 -10
BITMAP
001f00
003fc0
007fe0
0071e0
00e080
00e000
00e000
00e000
00e000
00e000
00e000
00e000
03fc00
0ffe00
1ce700
38e380
30e1c0
70e0c0
60e0c0
60e0e0
60e1f0
60e7fc
60e2c8
30e0c0
38e180
1ce380
0eef00
07fc00
01f000
00e000
00e000
00e000
00e000
00e000
00e000
21e000
73c000
ffc000
3f8000
1e0000
ENDCHAR
STARTCHAR ClckwContInteg
ENCODING 155
SWIDTH 447 0
DWIDTH 14 0
BBX 22 40 1 -10
BITMAP
0003e0
0007f0
000ff8
000e3c
001c10
001c00
001c00
001c00
001c00
001c00
001c00
001c00
007f00
01ffc0
039ce0
071c70
0e1c30
0c1c38
0c1c18
1c1c18
3e1c18
ff9c18
6d9c18
0e1c30
061c30
071c60
03ddc0
00ff80
003e00
001c00
001c00
001c00
001c00
001c00
001c00
043c00
1c7800
1ff800
0ff000
03c000
ENDCHAR
STARTCHAR SquareContInteg
ENCODING 156
SWIDTH 447 0
DWIDTH 14 0
BBX 19 40 2 -10
BITMAP
001f00
007f80
00ffc0
00e1e0
01e080
01c000
01c000
01c000
01c000
01c000
01c000
7fffc0
7fffc0
61c0c0
61c0c0
61c0c0
61c0c0
61c0c0
61c0c0
61c0c0
61c0c0
61c0c0
61c0c0
61c0c0
61c0c0
61c0c0
7fffc0
7fffc0
01c000
01c000
01c000
01c000
01c000
01c000
01c000
23c000
e38000
ff8000
7f0000
1c0000
ENDCHAR
STARTCHAR UnionPlus
ENCODING 157
SWIDTH 764 0
DWIDTH 24 0
BBX 22 29 1 -7
BITMAP
e0001c
e0001c
e0001c
e0001c
e0001c
e0001c
e0001c
e0001c
e0001c
e0001c
e0001c
e0381c
e0381c
e0381c
e0381c
e0381c
e7ffdc
e7ffdc
e7ffdc
e0381c
e0381c
f0381c
703838
783878
3c00f0
1f03f0
0fffe0
03ff80
00fe00
ENDCHAR
STARTCHAR SquareIntersection
ENCODING 158
SWIDTH 764 0
DWIDTH 24 0
BBX 22 28 1 -6
BITMAP
fffffc
fffffc
fffffc
e0001c
e0001c
e0001c
e0001c
e0001c
e0001c
e0001c
e0001c
e0001c
e0001c
e0001c
e0001c
e0001c
e0001c
e0001c
e0001c
e0001c
e0001c
e0001c
e0001c
e0001c
e0001c
e0001c
e0001c
e0001c
ENDCHAR
STARTCHAR SquareUnion
ENCODING 159
SWIDTH 764 0
DWIDTH 24 0
BBX 22 28 1 -6
BITMAP
e0001c
e0001c
e0001c
e0001c
e0001c
e0001c
e0001c
e0001c
e0001c
e0001c
e0001c
e0001c
e0001c
e0001c
e0001c
e0001c
e0001c
e0001c
e0001c
e0001c
e0001c
e0001c
e0001c
e0001c
e0001c
fffffc
fffffc
fffffc
ENDCHAR
STARTCHAR LBracketBar1
ENCODING 160
SWIDTH 600 0
DWIDTH 19 0
BBX 5 26 6 -6
BITMAP
38
38
38
38
38
38
38
38
38
38
38
38
38
f8
38
38
38
38
38
38
38
38
38
38
38
38
ENDCHAR
STARTCHAR LBracketBar2
ENCODING 161
SWIDTH 600 0
DWIDTH 19 0
BBX 5 40 6 -13
BITMAP
38
38
38
38
38
38
38
38
38
38
38
38
38
38
38
38
38
38
38
38
f8
38
38
38
38
38
38
38
38
38
38
38
38
38
38
38
38
38
38
38
ENDCHAR
STARTCHAR LBracketBar3
ENCODING 162
SWIDTH 600 0
DWIDTH 19 0
BBX 5 54 6 -20
BITMAP
38
38
38
38
38
38
38
38
38
38
38
38
38
38
38
38
38
38
38
38
38
38
38
38
38
38
38
f8
38
38
38
38
38
38
38
38
38
38
38
38
38
38
38
38
38
38
38
38
38
38
38
38
38
38
ENDCHAR
STARTCHAR LBracketBar4
ENCODING 163
SWIDTH 600 0
DWIDTH 19 0
BBX 5 67 6 -26
BITMAP
38
38
38
38
38
38
38
38
38
38
38
38
38
38
38
38
38
38
38
38
38
38
38
38
38
38
38
38
38
38
38
38
38
38
f8
38
38
38
38
38
38
38
38
38
38
38
38
38
38
38
38
38
38
38
38
38
38
38
38
38
38
38
38
38
38
38
38
ENDCHAR
STARTCHAR RBracketBar1
ENCODING 164
SWIDTH 600 0
DWIDTH 19 0
BBX 5 26 8 -6
BITMAP
e0
e0
e0
e0
e0
e0
e0
e0
e0
e0
e0
e0
e0
f8
e0
e0
e0
e0
e0
e0
e0
e0
e0
e0
e0
e0
ENDCHAR
STARTCHAR RBracketBar2
ENCODING 165
SWIDTH 600 0
DWIDTH 19 0
BBX 5 40 8 -13
BITMAP
e0
e0
e0
e0
e0
e0
e0
e0
e0
e0
e0
e0
e0
e0
e0
e0
e0
e0
e0
e0
f8
e0
e0
e0
e0
e0
e0
e0
e0
e0
e0
e0
e0
e0
e0
e0
e0
e0
e0
e0
ENDCHAR
STARTCHAR RBracketBar3
ENCODING 166
SWIDTH 600 0
DWIDTH 19 0
BBX 5 54 8 -20
BITMAP
e0
e0
e0
e0
e0
e0
e0
e0
e0
e0
e0
e0
e0
e0
e0
e0
e0
e0
e0
e0
e0
e0
e0
e0
e0
e0
e0
f8
e0
e0
e0
e0
e0
e0
e0
e0
e0
e0
e0
e0
e0
e0
e0
e0
e0
e0
e0
e0
e0
e0
e0
e0
e0
e0
ENDCHAR
STARTCHAR RBracketBar4
ENCODING 167
SWIDTH 600 0
DWIDTH 19 0
BBX 5 67 8 -26
BITMAP
e0
e0
e0
e0
e0
e0
e0
e0
e0
e0
e0
e0
e0
e0
e0
e0
e0
e0
e0
e0
e0
e0
e0
e0
e0
e0
e0
e0
e0
e0
e0
e0
e0
e0
f8
e0
e0
e0
e0
e0
e0
e0
e0
e0
e0
e0
e0
e0
e0
e0
e0
e0
e0
e0
e0
e0
e0
e0
e0
e0
e0
e0
e0
e0
e0
e0
e0
ENDCHAR
STARTCHAR ContourIntegral2
ENCODING 168
SWIDTH 655 0
DWIDTH 21 0
BBX 29 70 2 -22
BITMAP
00001f80
00007fe0
0000fff0
0001f0f8
0001c038
0003c010
00038000
00038000
00078000
00070000
00070000
00070000
00070000
00070000
00070000
00070000
00070000
00070000
00070000
00070000
00070000
00070000
007ff000
01fffc00
03c71e00
0f070780
1c0701c0
180700c0
30070060
70070070
60070030
60070030
c0070018
c0070018
c0070018
c0070018
c0070018
c0070018
c0070018
e0070038
60070030
60070030
30070060
380700e0
1c0701c0
0e070380
07070700
03e73e00
00fff800
003fe000
00070000
00070000
00070000
00070000
00070000
00070000
00070000
00070000
00070000
00070000
000f0000
000e0000
000e0000
001e0000
201c0000
603c0000
f0780000
7ff00000
3fe00000
0f800000
ENDCHAR
STARTCHAR DblContInteg2
ENCODING 169
SWIDTH 1087 0
DWIDTH 35 0
BBX 43 70 2 -22
BITMAP
00001f807e00
00007fe1ff80
0000fff3ffc0
0001f0e7c3e0
0001c00700c0
0003c00f0040
0003800e0000
0003800e0000
0007001c0000
0007001c0000
0007001c0000
0007001c0000
0007001c0000
0007001c0000
0007001c0000
0007001c0000
0007001c0000
0007001c0000
0007001c0000
0007001c0000
0007001c0000
001fffff0000
00ffffffe000
03e7001cf800
0787001c1c00
0e07001c0e00
1c07001c0700
3807001c0380
3007001c0180
7007001c00c0
6007001c00c0
6007001c00c0
c007001c0060
c007001c0060
c007001c0060
c007001c0060
c007001c0060
c007001c0060
c007001c0060
6007001c00c0
6007001c00c0
7007001c00c0
3007001c0180
3807001c0380
1c07001c0700
0e07001c0e00
0787001c1c00
03e7001cf800
00ffffffe000
001fffff0000
0007001c0000
0007001c0000
0007001c0000
0007001c0000
0007001c0000
0007001c0000
0007001c0000
0007001c0000
0007001c0000
0007001c0000
000f003c0000
000e00380000
000e00380000
001e00780000
201c00700000
603c40f00000
f078c1e00000
7ff1ffc00000
3fe0ff800000
0f803e000000
ENDCHAR
STARTCHAR CntrClckwContInteg2
ENCODING 170
SWIDTH 655 0
DWIDTH 21 0
BBX 34 70 2 -22
BITMAP
00001f8000
00007fe000
0000fff000
0001f0f800
0001c03800
0003c01000
0003800000
0003800000
0007800000
0007000000
0007000000
0007000000
0007000000
0007000000
0007000000
0007000000
0007000000
0007000000
0007000000
0007000000
0007000000
0007000000
007ff00000
01fffc0000
03c71e0000
0f07078000
1c0701c000
180700c000
3007006000
7007007000
6007003000
6007003000
c007001800
c007001800
c007001800
c007003c00
c007007e00
c00700ff00
c007019b80
e0070338c0
6007013040
6007003000
3007006000
380700e000
1c0701c000
0e07038000
0707070000
03e73e0000
00fff80000
003fe00000
0007000000
0007000000
0007000000
0007000000
0007000000
0007000000
0007000000
0007000000
0007000000
0007000000
000f000000
000e000000
000e000000
001e000000
201c000000
603c000000
f078000000
7ff0000000
3fe0000000
0f80000000
ENDCHAR
STARTCHAR ClckwContInteg2
ENCODING 171
SWIDTH 811 0
DWIDTH 26 0
BBX 35 70 1 -22
BITMAP
0000007e00
000001ff80
000003ffc0
000007c3e0
00000700e0
00000f0040
00000e0000
00000e0000
00001e0000
00001c0000
00001c0000
00001c0000
00001c0000
00001c0000
00001c0000
00001c0000
00001c0000
00001c0000
00001c0000
00001c0000
00001c0000
00001c0000
0001ffc000
0007fff000
000f1c7800
003c1c1e00
00701c0700
00601c0300
00c01c0180
01c01c01c0
01801c00c0
01801c00c0
03001c0060
03001c0060
03001c0060
07801c0060
0fc01c0060
1fe01c0060
73301c0060
e3981c00e0
41881c00c0
01801c00c0
00c01c0180
00e01c0380
00701c0700
00381c0e00
001c1c1c00
000f9cf800
0003ffe000
0000ff8000
00001c0000
00001c0000
00001c0000
00001c0000
00001c0000
00001c0000
00001c0000
00001c0000
00001c0000
00001c0000
00003c0000
0000380000
0000380000
0000780000
0080700000
0180f00000
03c1e00000
01ffc00000
00ff800000
003e000000
ENDCHAR
STARTCHAR SquareContInteg2
ENCODING 172
SWIDTH 655 0
DWIDTH 21 0
BBX 29 70 2 -22
BITMAP
00001f80
00007fe0
0000fff0
0001f078
0001c038
0003c010
00038000
00038000
00078000
00070000
00070000
00070000
00070000
00070000
00070000
00070000
00070000
00070000
00070000
00070000
00070000
fffffff8
fffffff8
c0070018
c0070018
c0070018
c0070018
c0070018
c0070018
c0070018
c0070018
c0070018
c0070018
c0070018
c0070018
c0070018
c0070018
c0070018
c0070018
c0070018
c0070018
c0070018
c0070018
c0070018
c0070018
c0070018
c0070018
c0070018
fffffff8
fffffff8
00070000
00070000
00070000
00070000
00070000
00070000
00070000
00070000
00070000
00070000
000f0000
000e0000
000e0000
001e0000
201c0000
603c0000
f0780000
fff00000
3fe00000
0f800000
ENDCHAR
STARTCHAR UnionPlus2
ENCODING 173
SWIDTH 1205 0
DWIDTH 39 0
BBX 36 50 1 -17
BITMAP
e000000070
e000000070
e000000070
e000000070
e000000070
e000000070
e000000070
e000000070
e000000070
e000000070
e000000070
e000000070
e000000070
e000000070
e000000070
e000000070
e000000070
e000000070
e000000070
e000000070
e000700070
e000700070
e000700070
e000700070
e000700070
e000700070
e000700070
e000700070
e000700070
e1fffff870
e1fffff870
e1fffff870
e000700070
e000700070
e000700070
e000700070
e000700070
f0007000f0
70007000e0
70007000e0
38007001e0
3c000003c0
1e00000380
0f00000780
0f80001f00
07e0007e00
01fc01fc00
00fffff000
001fffc000
0003fe0000
ENDCHAR
STARTCHAR SquareIntersection2
ENCODING 174
SWIDTH 1206 0
DWIDTH 39 0
BBX 36 49 1 -16
BITMAP
fffffffff0
fffffffff0
fffffffff0
e000000070
e000000070
e000000070
e000000070
e000000070
e000000070
e000000070
e000000070
e000000070
e000000070
e000000070
e000000070
e000000070
e000000070
e000000070
e000000070
e000000070
e000000070
e000000070
e000000070
e000000070
e000000070
e000000070
e000000070
e000000070
e000000070
e000000070
e000000070
e000000070
e000000070
e000000070
e000000070
e000000070
e000000070
e000000070
e000000070
e000000070
e000000070
e000000070
e000000070
e000000070
e000000070
e000000070
e000000070
e000000070
e000000070
ENDCHAR
STARTCHAR SquareUnion2
ENCODING 175
SWIDTH 1206 0
DWIDTH 39 0
BBX 36 49 1 -16
BITMAP
e000000070
e000000070
e000000070
e000000070
e000000070
e000000070
e000000070
e000000070
e000000070
e000000070
e000000070
e000000070
e000000070
e000000070
e000000070
e000000070
e000000070
e000000070
e000000070
e000000070
e000000070
e000000070
e000000070
e000000070
e000000070
e000000070
e000000070
e000000070
e000000070
e000000070
e000000070
e000000070
e000000070
e000000070
e000000070
e000000070
e000000070
e000000070
e000000070
e000000070
e000000070
e000000070
e000000070
e000000070
e000000070
e000000070
fffffffff0
fffffffff0
fffffffff0
ENDCHAR
STARTCHAR DblLBracketBar1
ENCODING 176
SWIDTH 600 0
DWIDTH 19 0
BBX 11 26 3 -6
BITMAP
38e0
38e0
38e0
38e0
38e0
38e0
38e0
38e0
38e0
38e0
38e0
38e0
38e0
f8e0
38e0
38e0
38e0
38e0
38e0
38e0
38e0
38e0
38e0
38e0
38e0
38e0
ENDCHAR
STARTCHAR DblLBracketBar2
ENCODING 177
SWIDTH 600 0
DWIDTH 19 0
BBX 11 40 3 -13
BITMAP
38e0
38e0
38e0
38e0
38e0
38e0
38e0
38e0
38e0
38e0
38e0
38e0
38e0
38e0
38e0
38e0
38e0
38e0
38e0
38e0
f8e0
38e0
38e0
38e0
38e0
38e0
38e0
38e0
38e0
38e0
38e0
38e0
38e0
38e0
38e0
38e0
38e0
38e0
38e0
38e0
ENDCHAR
STARTCHAR DblLBracketBar3
ENCODING 178
SWIDTH 600 0
DWIDTH 19 0
BBX 11 54 3 -20
BITMAP
38e0
38e0
38e0
38e0
38e0
38e0
38e0
38e0
38e0
38e0
38e0
38e0
38e0
38e0
38e0
38e0
38e0
38e0
38e0
38e0
38e0
38e0
38e0
38e0
38e0
38e0
38e0
f8e0
38e0
38e0
38e0
38e0
38e0
38e0
38e0
38e0
38e0
38e0
38e0
38e0
38e0
38e0
38e0
38e0
38e0
38e0
38e0
38e0
38e0
38e0
38e0
38e0
38e0
38e0
ENDCHAR
STARTCHAR DblLBracketBar4
ENCODING 179
SWIDTH 600 0
DWIDTH 19 0
BBX 11 67 3 -26
BITMAP
38e0
38e0
38e0
38e0
38e0
38e0
38e0
38e0
38e0
38e0
38e0
38e0
38e0
38e0
38e0
38e0
38e0
38e0
38e0
38e0
38e0
38e0
38e0
38e0
38e0
38e0
38e0
38e0
38e0
38e0
38e0
38e0
38e0
38e0
f8e0
38e0
38e0
38e0
38e0
38e0
38e0
38e0
38e0
38e0
38e0
38e0
38e0
38e0
38e0
38e0
38e0
38e0
38e0
38e0
38e0
38e0
38e0
38e0
38e0
38e0
38e0
38e0
38e0
38e0
38e0
38e0
38e0
ENDCHAR
STARTCHAR DblRBracketBar1
ENCODING 180
SWIDTH 600 0
DWIDTH 19 0
BBX 11 26 5 -6
BITMAP
e380
e380
e380
e380
e380
e380
e380
e380
e380
e380
e380
e380
e380
e3e0
e380
e380
e380
e380
e380
e380
e380
e380
e380
e380
e380
e380
ENDCHAR
STARTCHAR DblRBracketBar2
ENCODING 181
SWIDTH 600 0
DWIDTH 19 0
BBX 11 40 5 -13
BITMAP
e380
e380
e380
e380
e380
e380
e380
e380
e380
e380
e380
e380
e380
e380
e380
e380
e380
e380
e380
e380
e3e0
e380
e380
e380
e380
e380
e380
e380
e380
e380
e380
e380
e380
e380
e380
e380
e380
e380
e380
e380
ENDCHAR
STARTCHAR DblRBracketBar3
ENCODING 182
SWIDTH 600 0
DWIDTH 19 0
BBX 11 54 5 -20
BITMAP
e380
e380
e380
e380
e380
e380
e380
e380
e380
e380
e380
e380
e380
e380
e380
e380
e380
e380
e380
e380
e380
e380
e380
e380
e380
e380
e380
e3e0
e380
e380
e380
e380
e380
e380
e380
e380
e380
e380
e380
e380
e380
e380
e380
e380
e380
e380
e380
e380
e380
e380
e380
e380
e380
e380
ENDCHAR
STARTCHAR DblRBracketBar4
ENCODING 183
SWIDTH 600 0
DWIDTH 19 0
BBX 11 67 5 -26
BITMAP
e380
e380
e380
e380
e380
e380
e380
e380
e380
e380
e380
e380
e380
e380
e380
e380
e380
e380
e380
e380
e380
e380
e380
e380
e380
e380
e380
e380
e380
e380
e380
e380
e380
e380
e3e0
e380
e380
e380
e380
e380
e380
e380
e380
e380
e380
e380
e380
e380
e380
e380
e380
e380
e380
e380
e380
e380
e380
e380
e380
e380
e380
e380
e380
e380
e380
e380
e380
ENDCHAR
STARTCHAR ContourIntegral3
ENCODING 184
SWIDTH 874 0
DWIDTH 28 0
BBX 43 106 1 -35
BITMAP
00000003f800
0000000ffe00
0000003fff00
0000007c0fc0
000000f803e0
000001e001c0
000001e00080
000003c00000
000003800000
000003800000
000007800000
000007000000
000007000000
000007000000
00000f000000
00000e000000
00000e000000
00000e000000
00000e000000
00000e000000
00000e000000
00000e000000
00000e000000
00000e000000
00000e000000
00000e000000
00000e000000
00000e000000
00000e000000
00000e000000
00000e000000
00000e000000
00000e000000
00003f800000
0003fff80000
000feefe0000
003e0e0f8000
00f00e01e000
01e00e00f000
03800e003800
07000e001c00
0e000e000e00
0c000e000600
1c000e000700
18000e000300
30000e000180
30000e000180
60000e0000c0
60000e0000c0
60000e0000c0
c0000e000060
c0000e000060
c0000e000060
c0000e000060
c0000e000060
c0000e000060
c0000e000060
c0000e000060
c0000e000060
60000e0000c0
60000e0000c0
60000e0000c0
70000e0001c0
30000e000180
38000e000380
18000e000300
0c000e000700
0e000e000e00
07000e001c00
03800e003800
01c00e007000
00f00e01e000
007c0e07c000
001f8e3f0000
0007fffc0000
0000ffe00000
00000e000000
00000e000000
00000e000000
00000e000000
00000e000000
00000e000000
00000e000000
00000e000000
00000e000000
00000e000000
00000e000000
00000e000000
00000e000000
00000e000000
00000e000000
00001e000000
00001c000000
00001c000000
00001c000000
00003c000000
000038000000
000038000000
000070000000
2000f0000000
6001e0000000
f803e0000000
7e0fc0000000
3fff80000000
0ffe00000000
03f800000000
ENDCHAR
STARTCHAR DblContInteg3
ENCODING 185
SWIDTH 1496 0
DWIDTH 48 0
BBX 63 106 1 -35
BITMAP
00000003f8003f80
0000000ffe00ffe0
0000003fff03fff0
0000007c0fc7c0fc
000000f8038f803e
000001e0011e001c
000001e0001e0008
000003c0003c0000
0000038000380000
0000038000380000
0000078000780000
0000070000700000
0000070000700000
0000070000700000
00000f0000f00000
00000e0000e00000
00000e0000e00000
00000e0000e00000
00000e0000e00000
00000e0000e00000
00000e0000e00000
00000e0000e00000
00000e0000e00000
00000e0000e00000
00000e0000e00000
00000e0000e00000
00000e0000e00000
00000e0000e00000
00000e0000e00000
00000e0000e00000
00000e0000e00000
00000e0000e00000
00000e0000e00000
00007ffffffc0000
0003ffffffff8000
001f8e0000e3f000
003c0e0000e07800
00f00e0000e01e00
01c00e0000e00700
03800e0000e00380
07000e0000e001c0
0e000e0000e000e0
0c000e0000e00060
18000e0000e00030
38000e0000e00038
30000e0000e00018
30000e0000e0001c
60000e0000e0000c
60000e0000e0000c
60000e0000e0000c
c0000e0000e00006
c0000e0000e00006
c0000e0000e00006
c0000e0000e00006
c0000e0000e00006
c0000e0000e00006
c0000e0000e00006
c0000e0000e00006
c0000e0000e00006
60000e0000e0000c
60000e0000e0000c
60000e0000e0000c
30000e0000e00018
30000e0000e00018
38000e0000e00038
18000e0000e00030
0c000e0000e00060
0e000e0000e000e0
07000e0000e001c0
03800e0000e00380
01c00e0000e00700
00f00e0000e01e00
003c0e0000e07800
001f8e0000e3f000
0007ffffffffc000
00007ffffffc0000
00000e0000e00000
00000e0000e00000
00000e0000e00000
00000e0000e00000
00000e0000e00000
00000e0000e00000
00000e0000e00000
00000e0000e00000
00000e0000e00000
00000e0000e00000
00000e0000e00000
00000e0000e00000
00000e0000e00000
00000e0000e00000
00000e0000e00000
00001e0001e00000
00001c0001c00000
00001c0001c00000
00001c0001c00000
00003c0003c00000
0000380003800000
0000380003800000
0000700007000000
2000f0000f000000
6001e0001e000000
f803e1803e000000
7e0fc3e0fc000000
3fff83fff8000000
0ffe00ffe0000000
03f8003f80000000
ENDCHAR
STARTCHAR CntrClckwContInteg3
ENCODING 186
SWIDTH 874 0
DWIDTH 28 0
BBX 51 106 1 -35
BITMAP
00000003f80000
0000000ffe0000
0000003fff0000
0000007c0fc000
000000f803e000
000001e001c000
000001e0004000
000003c0000000
00000380000000
00000380000000
00000780000000
00000700000000
00000700000000
00000700000000
00000f00000000
00000e00000000
00000e00000000
00000e00000000
00000e00000000
00000e00000000
00000e00000000
00000e00000000
00000e00000000
00000e00000000
00000e00000000
00000e00000000
00000e00000000
00000e00000000
00000e00000000
00000e00000000
00000e00000000
00000e00000000
00000e00000000
00007fc0000000
0007fffc000000
001f8e3f000000
003c0e07c00000
00f00e01e00000
01c00e00700000
03800e00380000
07000e001c0000
0e000e000e0000
0c000e00070000
18000e00030000
38000e00038000
30000e00018000
70000e0001c000
60000e0000c000
60000e0000c000
60000e0000c000
c0000e00006000
c0000e00006000
c0000e00006000
c0000e00006000
c0000e0000f000
c0000e0001f800
c0000e0007fc00
c0000e000e6700
c0000e001c6380
60000e0038c1c0
60000e0070c0e0
60000e0020c020
30000e0001c000
30000e00018000
38000e00038000
18000e00030000
0c000e00070000
0e000e000e0000
07000e001c0000
03800e00380000
01c00e00700000
00f00e01e00000
003c0e07c00000
001f8e3f000000
0007fffc000000
00007fc0000000
00000e00000000
00000e00000000
00000e00000000
00000e00000000
00000e00000000
00000e00000000
00000e00000000
00000e00000000
00000e00000000
00000e00000000
00000e00000000
00000e00000000
00000e00000000
00000e00000000
00000e00000000
00001e00000000
00001c00000000
00001c00000000
00001c00000000
00003c00000000
00003800000000
00003800000000
00007000000000
2000f000000000
6001e000000000
f803e000000000
7e0fc000000000
3fff8000000000
0ffe0000000000
03f80000000000
ENDCHAR
STARTCHAR ClckwContInteg3
ENCODING 187
SWIDTH 1123 0
DWIDTH 36 0
BBX 51 106 1 -35
BITMAP
0000000003f800
000000000ffe00
000000003fff00
000000007c0fc0
00000000f803e0
00000001e001c0
00000001e00080
00000003c00000
00000003800000
00000003800000
00000007800000
00000007000000
00000007000000
00000007000000
0000000f000000
0000000e000000
0000000e000000
0000000e000000
0000000e000000
0000000e000000
0000000e000000
0000000e000000
0000000e000000
0000000e000000
0000000e000000
0000000e000000
0000000e000000
0000000e000000
0000000e000000
0000000e000000
0000000e000000
0000000e000000
0000000e000000
0000007fc00000
000007fffc0000
00001f8e3f0000
00003c0e078000
0000f00e01e000
0001c00e007000
0003800e003800
0007000e001c00
000e000e000e00
000c000e000600
0018000e000300
0038000e000380
0030000e000180
0070000e0001c0
0060000e0000c0
0060000e0000c0
0060000e0000c0
00c0000e000060
00c0000e000060
00c0000e000060
00c0000e000060
01e0000e000060
03f0000e000060
0ffc000e000060
1cce000e000060
38c7000e000060
7063800e0000c0
e060c00e0000c0
4060400e0000c0
0070000e0001c0
0030000e000180
0038000e000380
0018000e000300
000c000e000600
000e000e000e00
0007000e001c00
0003800e003800
0001c00e007000
0000f00e01e000
00003c0e078000
00001f8e3f0000
000007fffc0000
0000007fc00000
0000000e000000
0000000e000000
0000000e000000
0000000e000000
0000000e000000
0000000e000000
0000000e000000
0000000e000000
0000000e000000
0000000e000000
0000000e000000
0000000e000000
0000000e000000
0000000e000000
0000000e000000
0000001e000000
0000001c000000
0000001c000000
0000001c000000
0000003c000000
00000038000000
00000038000000
00000070000000
002000f0000000
006001e0000000
00f803e0000000
007c0fc0000000
003fff80000000
000ffe00000000
0003f800000000
ENDCHAR
STARTCHAR SquareContInteg3
ENCODING 188
SWIDTH 870 0
DWIDTH 28 0
BBX 43 106 1 -35
BITMAP
00000003f800
0000000ffe00
0000003fff80
0000007e0fc0
000000f803e0
000001e000e0
000001e00040
000003c00000
000003800000
000003800000
000007800000
000007000000
000007000000
000007000000
00000f000000
00000e000000
00000e000000
00000e000000
00000e000000
00000e000000
00000e000000
00000e000000
00000e000000
00000e000000
00000e000000
00000e000000
00000e000000
00000e000000
00000e000000
00000e000000
00000e000000
00000e000000
00000e000000
ffffffffffe0
ffffffffffe0
c0000e000060
c0000e000060
c0000e000060
c0000e000060
c0000e000060
c0000e000060
c0000e000060
c0000e000060
c0000e000060
c0000e000060
c0000e000060
c0000e000060
c0000e000060
c0000e000060
c0000e000060
c0000e000060
c0000e000060
c0000e000060
c0000e000060
c0000e000060
c0000e000060
c0000e000060
c0000e000060
c0000e000060
c0000e000060
c0000e000060
c0000e000060
c0000e000060
c0000e000060
c0000e000060
c0000e000060
c0000e000060
c0000e000060
c0000e000060
c0000e000060
c0000e000060
c0000e000060
c0000e000060
ffffffffffe0
ffffffffffe0
00000e000000
00000e000000
00000e000000
00000e000000
00000e000000
00000e000000
00000e000000
00000e000000
00000e000000
00000e000000
00000e000000
00000e000000
00000e000000
00000e000000
00000e000000
00000e000000
00001e000000
00001c000000
00001c000000
00001c000000
00003c000000
000038000000
000038000000
000070000000
2000f0000000
6001e0000000
f803e0000000
7c0fc0000000
3fff80000000
0ffe00000000
03f800000000
ENDCHAR
STARTCHAR UnionPlus3
ENCODING 189
SWIDTH 1737 0
DWIDTH 56 0
BBX 53 75 1 -27
BITMAP
e0000000000038
e0000000000038
e0000000000038
e0000000000038
e0000000000038
e0000000000038
e0000000000038
e0000000000038
e0000000000038
e0000000000038
e0000000000038
e0000000000038
e0000000000038
e0000000000038
e0000000000038
e0000000000038
e0000000000038
e0000000000038
e0000000000038
e0000000000038
e0000000000038
e0000000000038
e0000000000038
e0000000000038
e0000000000038
e0000000000038
e0000000000038
e0000000000038
e0000000000038
e0000000000038
e0000000000038
e0000000000038
e0000070000038
e0000070000038
e0000070000038
e0000070000038
e0000070000038
e0000070000038
e0000070000038
e0000070000038
e0000070000038
e0000070000038
e0000070000038
e0000070000038
e0000070000038
e01fffffffc038
e01fffffffc038
e01fffffffc038
e0000070000038
e0000070000038
e0000070000038
e0000070000038
e0000070000038
e0000070000038
e0000070000038
70000070000070
70000070000070
70000070000070
78000070000070
380000700000e0
380000700000e0
1c0000000001c0
1e0000000003c0
0e000000000380
07000000000780
07800000000f00
03c00000001e00
01f00000007c00
00f8000000f800
003e000003f000
001fc0000fc000
0007f800ff0000
0001fffffc0000
00007ffff00000
000007ff000000
ENDCHAR
STARTCHAR SquareIntersection3
ENCODING 190
SWIDTH 1736 0
DWIDTH 56 0
BBX 53 74 1 -26
BITMAP
fffffffffffff8
fffffffffffff8
fffffffffffff8
e0000000000038
e0000000000038
e0000000000038
e0000000000038
e0000000000038
e0000000000038
e0000000000038
e0000000000038
e0000000000038
e0000000000038
e0000000000038
e0000000000038
e0000000000038
e0000000000038
e0000000000038
e0000000000038
e0000000000038
e0000000000038
e0000000000038
e0000000000038
e0000000000038
e0000000000038
e0000000000038
e0000000000038
e0000000000038
e0000000000038
e0000000000038
e0000000000038
e0000000000038
e0000000000038
e0000000000038
e0000000000038
e0000000000038
e0000000000038
e0000000000038
e0000000000038
e0000000000038
e0000000000038
e0000000000038
e0000000000038
e0000000000038
e0000000000038
e0000000000038
e0000000000038
e0000000000038
e0000000000038
e0000000000038
e0000000000038
e0000000000038
e0000000000038
e0000000000038
e0000000000038
e0000000000038
e0000000000038
e0000000000038
e0000000000038
e0000000000038
e0000000000038
e0000000000038
e0000000000038
e0000000000038
e0000000000038
e0000000000038
e0000000000038
e0000000000038
e0000000000038
e0000000000038
e0000000000038
e0000000000038
e0000000000038
e0000000000038
ENDCHAR
STARTCHAR SquareUnion3
ENCODING 191
SWIDTH 1736 0
DWIDTH 56 0
BBX 53 74 1 -26
BITMAP
e0000000000038
e0000000000038
e0000000000038
e0000000000038
e0000000000038
e0000000000038
e0000000000038
e0000000000038
e0000000000038
e0000000000038
e0000000000038
e0000000000038
e0000000000038
e0000000000038
e0000000000038
e0000000000038
e0000000000038
e0000000000038
e0000000000038
e0000000000038
e0000000000038
e0000000000038
e0000000000038
e0000000000038
e0000000000038
e0000000000038
e0000000000038
e0000000000038
e0000000000038
e0000000000038
e0000000000038
e0000000000038
e0000000000038
e0000000000038
e0000000000038
e0000000000038
e0000000000038
e0000000000038
e0000000000038
e0000000000038
e0000000000038
e0000000000038
e0000000000038
e0000000000038
e0000000000038
e0000000000038
e0000000000038
e0000000000038
e0000000000038
e0000000000038
e0000000000038
e0000000000038
e0000000000038
e0000000000038
e0000000000038
e0000000000038
e0000000000038
e0000000000038
e0000000000038
e0000000000038
e0000000000038
e0000000000038
e0000000000038
e0000000000038
e0000000000038
e0000000000038
e0000000000038
e0000000000038
e0000000000038
e0000000000038
e0000000000038
fffffffffffff8
fffffffffffff8
fffffffffffff8
ENDCHAR
STARTCHAR DblBar1
ENCODING 192
SWIDTH 600 0
DWIDTH 19 0
BBX 9 26 5 -6
BITMAP
e380
e380
e380
e380
e380
e380
e380
e380
e380
e380
e380
e380
e380
e380
e380
e380
e380
e380
e380
e380
e380
e380
e380
e380
e380
e380
ENDCHAR
STARTCHAR DblBar2
ENCODING 193
SWIDTH 600 0
DWIDTH 19 0
BBX 9 40 5 -13
BITMAP
e380
e380
e380
e380
e380
e380
e380
e380
e380
e380
e380
e380
e380
e380
e380
e380
e380
e380
e380
e380
e380
e380
e380
e380
e380
e380
e380
e380
e380
e380
e380
e380
e380
e380
e380
e380
e380
e380
e380
e380
ENDCHAR
STARTCHAR DblBar3
ENCODING 194
SWIDTH 600 0
DWIDTH 19 0
BBX 9 54 5 -20
BITMAP
e380
e380
e380
e380
e380
e380
e380
e380
e380
e380
e380
e380
e380
e380
e380
e380
e380
e380
e380
e380
e380
e380
e380
e380
e380
e380
e380
e380
e380
e380
e380
e380
e380
e380
e380
e380
e380
e380
e380
e380
e380
e380
e380
e380
e380
e380
e380
e380
e380
e380
e380
e380
e380
e380
ENDCHAR
STARTCHAR DblBar4
ENCODING 195
SWIDTH 600 0
DWIDTH 19 0
BBX 9 67 5 -26
BITMAP
e380
e380
e380
e380
e380
e380
e380
e380
e380
e380
e380
e380
e380
e380
e380
e380
e380
e380
e380
e380
e380
e380
e380
e380
e380
e380
e380
e380
e380
e380
e380
e380
e380
e380
e380
e380
e380
e380
e380
e380
e380
e380
e380
e380
e380
e380
e380
e380
e380
e380
e380
e380
e380
e380
e380
e380
e380
e380
e380
e380
e380
e380
e380
e380
e380
e380
e380
ENDCHAR
STARTCHAR BarExt
ENCODING 196
SWIDTH 600 0
DWIDTH 19 0
BBX 3 10 8 0
BITMAP
e0
e0
e0
e0
e0
e0
e0
e0
e0
e0
ENDCHAR
STARTCHAR DblBarExt
ENCODING 197
SWIDTH 600 0
DWIDTH 19 0
BBX 9 10 5 0
BITMAP
e380
e380
e380
e380
e380
e380
e380
e380
e380
e380
ENDCHAR
STARTCHAR OverCircle
ENCODING 198
SWIDTH 600 0
DWIDTH 19 0
BBX 7 7 6 0
BITMAP
38
7c
c6
c6
c6
7c
38
ENDCHAR
STARTCHAR Hacek
ENCODING 199
SWIDTH 600 0
DWIDTH 19 0
BBX 13 6 3 1
BITMAP
6030
f078
38e0
1fc0
0f80
0700
ENDCHAR
STARTCHAR VertBar1
ENCODING 200
SWIDTH 600 0
DWIDTH 19 0
BBX 3 26 8 -6
BITMAP
e0
e0
e0
e0
e0
e0
e0
e0
e0
e0
e0
e0
e0
e0
e0
e0
e0
e0
e0
e0
e0
e0
e0
e0
e0
e0
ENDCHAR
STARTCHAR VertBar2
ENCODING 201
SWIDTH 600 0
DWIDTH 19 0
BBX 3 40 8 -13
BITMAP
e0
e0
e0
e0
e0
e0
e0
e0
e0
e0
e0
e0
e0
e0
e0
e0
e0
e0
e0
e0
e0
e0
e0
e0
e0
e0
e0
e0
e0
e0
e0
e0
e0
e0
e0
e0
e0
e0
e0
e0
ENDCHAR
STARTCHAR nbspace
ENCODING 202
SWIDTH 263 0
DWIDTH 8 0
BBX 0 0 0 0
BITMAP
ENDCHAR
STARTCHAR VertBar3
ENCODING 203
SWIDTH 600 0
DWIDTH 19 0
BBX 3 54 8 -20
BITMAP
e0
e0
e0
e0
e0
e0
e0
e0
e0
e0
e0
e0
e0
e0
e0
e0
e0
e0
e0
e0
e0
e0
e0
e0
e0
e0
e0
e0
e0
e0
e0
e0
e0
e0
e0
e0
e0
e0
e0
e0
e0
e0
e0
e0
e0
e0
e0
e0
e0
e0
e0
e0
e0
e0
ENDCHAR
STARTCHAR VertBar4
ENCODING 204
SWIDTH 600 0
DWIDTH 19 0
BBX 3 67 8 -26
BITMAP
e0
e0
e0
e0
e0
e0
e0
e0
e0
e0
e0
e0
e0
e0
e0
e0
e0
e0
e0
e0
e0
e0
e0
e0
e0
e0
e0
e0
e0
e0
e0
e0
e0
e0
e0
e0
e0
e0
e0
e0
e0
e0
e0
e0
e0
e0
e0
e0
e0
e0
e0
e0
e0
e0
e0
e0
e0
e0
e0
e0
e0
e0
e0
e0
e0
e0
e0
ENDCHAR
STARTCHAR FIntegral
ENCODING 205
SWIDTH 447 0
DWIDTH 14 0
BBX 19 40 1 -10
BITMAP
000f00
003fc0
007fe0
0070e0
00f040
00e000
00e000
00e000
00e000
00e000
00e000
00e000
00e000
00e000
00e600
00ff00
00fc00
01e000
0fe000
0ee000
08e000
00e000
00e000
00e000
00e000
00e000
00e000
00e000
00e000
00e000
00e000
00e000
00e000
00e000
00e000
21e000
73c000
ffc000
3f8000
1e0000
ENDCHAR
STARTCHAR FIntegral2
ENCODING 206
SWIDTH 655 0
DWIDTH 21 0
BBX 30 70 1 -22
BITMAP
00000fc0
00003ff0
00007ff8
0000f87c
0000e018
0001e008
0001c000
0001c000
0003c000
00038000
00038000
00038000
00038000
00038000
00038000
00038000
00038000
00038000
00038000
00038000
00038000
00038000
00038000
00038000
00038000
00038000
00038180
00038780
0003be00
0003f800
0003c000
000f8000
007f8000
01f38000
01838000
00038000
00038000
00038000
00038000
00038000
00038000
00038000
00038000
00038000
00038000
00038000
00038000
00038000
00038000
00038000
00038000
00038000
00038000
00038000
00038000
00038000
00038000
00038000
00038000
00038000
00078000
00070000
00070000
000f0000
200e0000
701e0000
f83c0000
7ff80000
1ff00000
0fc00000
ENDCHAR
STARTCHAR FIntegral3
ENCODING 207
SWIDTH 870 0
DWIDTH 28 0
BBX 43 106 1 -35
BITMAP
00000003f000
0000000ffe00
0000003fff00
0000007c0f80
000000f003e0
000001e001c0
000001e00080
000003c00000
000003800000
000003800000
000007800000
000007000000
000007000000
000007000000
00000f000000
00000e000000
00000e000000
00000e000000
00000e000000
00000e000000
00000e000000
00000e000000
00000e000000
00000e000000
00000e000000
00000e000000
00000e000000
00000e000000
00000e000000
00000e000000
00000e000000
00000e000000
00000e000000
00000e000000
00000e000000
00000e000000
00000e000000
00000e000000
00000e000000
00000e000000
00000e000000
00000e004000
00000e03e000
00000e0f8000
00000e3c0000
00000ef00000
00000fc00000
00001f000000
00007e000000
0001ee000000
000f8e000000
003e0e000000
00300e000000
00200e000000
00000e000000
00000e000000
00000e000000
00000e000000
00000e000000
00000e000000
00000e000000
00000e000000
00000e000000
00000e000000
00000e000000
00000e000000
00000e000000
00000e000000
00000e000000
00000e000000
00000e000000
00000e000000
00000e000000
00000e000000
00000e000000
00000e000000
00000e000000
00000e000000
00000e000000
00000e000000
00000e000000
00000e000000
00000e000000
00000e000000
00000e000000
00000e000000
00000e000000
00000e000000
00000e000000
00000e000000
00000e000000
00001e000000
00001c000000
00001c000000
00001c000000
00003c000000
000038000000
000038000000
000070000000
2000f0000000
7000e0000000
f803e0000000
7e0fc0000000
1fff80000000
0ffe00000000
03f800000000
ENDCHAR
STARTCHAR OverDoubleDot
ENCODING 208
SWIDTH 600 0
DWIDTH 19 0
BBX 11 4 4 1
BITMAP
60c0
f1e0
f1e0
60c0
ENDCHAR
STARTCHAR OverTripleDot
ENCODING 209
SWIDTH 600 0
DWIDTH 19 0
BBX 17 4 1 1
BITMAP
60c300
f1e780
f1e780
60c300
ENDCHAR
STARTCHAR OverLVector
ENCODING 210
SWIDTH 600 0
DWIDTH 19 0
BBX 17 8 1 1
BITMAP
010000
038000
078000
0f0000
1e0000
3fff80
3fff80
ffff80
ENDCHAR
STARTCHAR OverRVector
ENCODING 211
SWIDTH 600 0
DWIDTH 19 0
BBX 17 8 1 1
BITMAP
004000
00e000
00f000
007800
003c00
fffe00
fffe00
ffff80
ENDCHAR
STARTCHAR OverLRVector
ENCODING 212
SWIDTH 600 0
DWIDTH 19 0
BBX 20 7 0 1
BITMAP
010800
039c00
071e00
0e0f00
1fff80
3fffc0
fffff0
ENDCHAR
STARTCHAR OverLArrow
ENCODING 213
SWIDTH 600 0
DWIDTH 19 0
BBX 17 12 1 -3
BITMAP
020000
070000
0f0000
1e0000
3c0000
7fff80
ffff80
7fff80
3c0000
1e0000
070000
020000
ENDCHAR
STARTCHAR OverArrowVectExt
ENCODING 214
SWIDTH 200 0
DWIDTH 6 0
BBX 6 3 0 1
BITMAP
fc
fc
fc
ENDCHAR
STARTCHAR OverRArrow
ENCODING 215
SWIDTH 600 0
DWIDTH 19 0
BBX 17 12 1 -3
BITMAP
002000
007000
007800
003c00
001e00
ffff00
ffff80
ffff00
001e00
003c00
007000
002000
ENDCHAR
STARTCHAR OverLRArrow
ENCODING 216
SWIDTH 600 0
DWIDTH 19 0
BBX 20 12 0 -3
BITMAP
020400
070e00
0f0f00
1e0780
3c03c0
7fffe0
fffff0
7fffe0
1c0380
0e0700
070e00
020400
ENDCHAR
STARTCHAR Integral
ENCODING 217
SWIDTH 447 0
DWIDTH 14 0
BBX 19 40 1 -10
BITMAP
000f00
003fc0
007fe0
0070e0
00f040
00e000
00e000
00e000
00e000
00e000
00e000
00e000
00e000
00e000
00e000
00e000
00e000
00e000
00e000
00e000
00e000
00e000
00e000
00e000
00e000
00e000
00e000
00e000
00e000
00e000
00e000
00e000
00e000
00e000
00e000
21e000
73c000
ffc000
3f8000
1e0000
ENDCHAR
STARTCHAR Summation
ENCODING 218
SWIDTH 784 0
DWIDTH 25 0
BBX 23 28 1 -6
BITMAP
3ffffc
3ffffc
1ffffc
1e001c
0f001c
07801c
03c01c
03c000
01e000
00f000
007800
003800
003c00
001e00
003c00
007800
00f000
01e000
01c000
03c000
07800e
0f000e
1e000e
3c000e
78000e
7ffffe
fffffe
fffffe
ENDCHAR
STARTCHAR Product
ENCODING 219
SWIDTH 821 0
DWIDTH 26 0
BBX 24 28 1 -6
BITMAP
ffffff
ffffff
ffffff
1c0038
1c0038
1c0038
1c0038
1c0038
1c0038
1c0038
1c0038
1c0038
1c0038
1c0038
1c0038
1c0038
1c0038
1c0038
1c0038
1c0038
1c0038
1c0038
1c0038
1c0038
1c0038
ff81ff
ff81ff
ff81ff
ENDCHAR
STARTCHAR Intersection
ENCODING 220
SWIDTH 764 0
DWIDTH 24 0
BBX 22 29 1 -7
BITMAP
e0001c
e0001c
e0001c
e0001c
e0001c
e0001c
e0001c
e0001c
e0001c
e0001c
e0001c
e0001c
e0001c
e0001c
e0001c
e0001c
e0001c
e0001c
e0001c
e0001c
e0001c
e0001c
700038
780078
3c00f0
1f03e0
0fffc0
07ff80
00fc00
ENDCHAR
STARTCHAR Union
ENCODING 221
SWIDTH 764 0
DWIDTH 24 0
BBX 22 28 1 -6
BITMAP
00fe00
07ff80
0fffc0
3f03f0
3c00f0
780078
700038
e0001c
e0001c
e0001c
e0001c
e0001c
e0001c
e0001c
e0001c
e0001c
e0001c
e0001c
e0001c
e0001c
e0001c
e0001c
e0001c
e0001c
e0001c
e0001c
e0001c
e0001c
ENDCHAR
STARTCHAR LogicalOr
ENCODING 222
SWIDTH 692 0
DWIDTH 22 0
BBX 20 18 1 0
BITMAP
f000f0
7000e0
7801e0
3801c0
3c03c0
1c0380
1e0780
0e0700
0f0f00
070e00
079e00
039c00
03fc00
01f800
01f000
00f000
00e000
006000
ENDCHAR
STARTCHAR LogicalAnd
ENCODING 223
SWIDTH 694 0
DWIDTH 22 0
BBX 20 18 1 0
BITMAP
006000
006000
00f000
00f000
01f800
03f800
039c00
079c00
070e00
0f0f00
0e0700
1e0780
1c0380
3c03c0
3801c0
7801e0
7000e0
f000f0
ENDCHAR
STARTCHAR Integral1
ENCODING 224
SWIDTH 643 0
DWIDTH 21 0
BBX 30 70 1 -22
BITMAP
00000fc0
00003ff0
00007ff8
0000f87c
0000e018
0001e008
0001c000
0001c000
0003c000
00038000
00038000
00038000
00038000
00038000
00038000
00038000
00038000
00038000
00038000
00038000
00038000
00038000
00038000
00038000
00038000
00038000
00038000
00038000
00038000
00038000
00038000
00038000
00038000
00038000
00038000
00038000
00038000
00038000
00038000
00038000
00038000
00038000
00038000
00038000
00038000
00038000
00038000
00038000
00038000
00038000
00038000
00038000
00038000
00038000
00038000
00038000
00038000
00038000
00038000
00038000
00078000
00070000
00070000
000f0000
200e0000
701e0000
f83c0000
7ff80000
1ff00000
0fc00000
ENDCHAR
STARTCHAR Integral2
ENCODING 225
SWIDTH 870 0
DWIDTH 28 0
BBX 43 106 1 -35
BITMAP
00000003f000
0000000ffe00
0000003fff00
0000007c0f80
000000f003e0
000001e001c0
000001e00080
000003c00000
000003800000
000003800000
000007800000
000007000000
000007000000
000007000000
00000f000000
00000e000000
00000e000000
00000e000000
00000e000000
00000e000000
00000e000000
00000e000000
00000e000000
00000e000000
00000e000000
00000e000000
00000e000000
00000e000000
00000e000000
00000e000000
00000e000000
00000e000000
00000e000000
00000e000000
00000e000000
00000e000000
00000e000000
00000e000000
00000e000000
00000e000000
00000e000000
00000e000000
00000e000000
00000e000000
00000e000000
00000e000000
00000e000000
00000e000000
00000e000000
00000e000000
00000e000000
00000e000000
00000e000000
00000e000000
00000e000000
00000e000000
00000e000000
00000e000000
00000e000000
00000e000000
00000e000000
00000e000000
00000e000000
00000e000000
00000e000000
00000e000000
00000e000000
00000e000000
00000e000000
00000e000000
00000e000000
00000e000000
00000e000000
00000e000000
00000e000000
00000e000000
00000e000000
00000e000000
00000e000000
00000e000000
00000e000000
00000e000000
00000e000000
00000e000000
00000e000000
00000e000000
00000e000000
00000e000000
00000e000000
00000e000000
00000e000000
00001e000000
00001c000000
00001c000000
00001c000000
00003c000000
000038000000
000038000000
000070000000
2000f0000000
7000e0000000
f803e0000000
7e0fc0000000
1fff80000000
0ffe00000000
03f800000000
ENDCHAR
STARTCHAR Sum1
ENCODING 226
SWIDTH 1265 0
DWIDTH 40 0
BBX 38 49 1 -16
BITMAP
0ffffffff0
0ffffffff0
0ffffffff0
0f00000070
0780000070
03c0000070
01c0000070
01e0000070
00f0000070
0078000070
0038000070
003c000070
001e000000
000f000000
0007000000
0007800000
0003c00000
0001e00000
0000e00000
0000f00000
0000780000
0000380000
00003c0000
00001e0000
00001c0000
00003c0000
0000780000
0000f00000
0001e00000
0003c00000
0003800000
0007800000
000f000000
001e000000
003c000000
0078000000
007800001c
00f000001c
01e000001c
03c000001c
078000001c
070000001c
0f0000001c
1e0000001c
3c0000001c
780000001c
fffffffffc
fffffffffc
fffffffffc
ENDCHAR
STARTCHAR Sum2
ENCODING 227
SWIDTH 1819 0
DWIDTH 58 0
BBX 56 74 1 -26
BITMAP
07fffffffffff8
07fffffffffff8
07fffffffffff8
03c00000000038
01c00000000038
01e00000000038
00f00000000038
00780000000038
00780000000038
003c0000000038
001e0000000038
000e0000000038
000f0000000038
00078000000038
0003c000000038
0003c000000038
0001e000000038
0000f000000000
00007000000000
00007800000000
00003c00000000
00001e00000000
00001e00000000
00000f00000000
00000780000000
00000380000000
000003c0000000
000001e0000000
000000f0000000
00000070000000
00000078000000
0000003c000000
0000001c000000
0000001e000000
0000000f000000
00000007800000
00000007000000
0000000f000000
0000001e000000
0000003c000000
00000078000000
00000070000000
000000f0000000
000001e0000000
000003c0000000
00000780000000
00000700000000
00000f00000000
00001e00000000
00003c00000000
00007800000000
00007000000000
0000f000000000
0001e000000000
0003c000000000
00078000000007
00070000000007
000f0000000007
001e0000000007
003c0000000007
00780000000007
00f00000000007
00f00000000007
01e00000000007
03c00000000007
07800000000007
0f000000000007
0f000000000007
1e000000000007
3c000000000007
78000000000007
ffffffffffffff
ffffffffffffff
ffffffffffffff
ENDCHAR
STARTCHAR Product1
ENCODING 228
SWIDTH 1223 0
DWIDTH 39 0
BBX 37 49 1 -16
BITMAP
fffffffff8
fffffffff8
fffffffff8
0e00000380
0e00000380
0e00000380
0e00000380
0e00000380
0e00000380
0e00000380
0e00000380
0e00000380
0e00000380
0e00000380
0e00000380
0e00000380
0e00000380
0e00000380
0e00000380
0e00000380
0e00000380
0e00000380
0e00000380
0e00000380
0e00000380
0e00000380
0e00000380
0e00000380
0e00000380
0e00000380
0e00000380
0e00000380
0e00000380
0e00000380
0e00000380
0e00000380
0e00000380
0e00000380
0e00000380
0e00000380
0e00000380
0e00000380
0e00000380
0e00000380
0e00000380
0e00000380
ffe0001ff8
ffe0001ff8
ffe0001ff8
ENDCHAR
STARTCHAR Product2
ENCODING 229
SWIDTH 1645 0
DWIDTH 53 0
BBX 49 74 2 -26
BITMAP
ffffffffffff80
ffffffffffff80
ffffffffffff80
0e000000003800
0e000000003800
0e000000003800
0e000000003800
0e000000003800
0e000000003800
0e000000003800
0e000000003800
0e000000003800
0e000000003800
0e000000003800
0e000000003800
0e000000003800
0e000000003800
0e000000003800
0e000000003800
0e000000003800
0e000000003800
0e000000003800
0e000000003800
0e000000003800
0e000000003800
0e000000003800
0e000000003800
0e000000003800
0e000000003800
0e000000003800
0e000000003800
0e000000003800
0e000000003800
0e000000003800
0e000000003800
0e000000003800
0e000000003800
0e000000003800
0e000000003800
0e000000003800
0e000000003800
0e000000003800
0e000000003800
0e000000003800
0e000000003800
0e000000003800
0e000000003800
0e000000003800
0e000000003800
0e000000003800
0e000000003800
0e000000003800
0e000000003800
0e000000003800
0e000000003800
0e000000003800
0e000000003800
0e000000003800
0e000000003800
0e000000003800
0e000000003800
0e000000003800
0e000000003800
0e000000003800
0e000000003800
0e000000003800
0e000000003800
0e000000003800
0e000000003800
0e000000003800
0e000000003800
ffe0000003ff80
ffe0000003ff80
ffe0000003ff80
ENDCHAR
STARTCHAR Union1
ENCODING 230
SWIDTH 1205 0
DWIDTH 39 0
BBX 36 50 1 -17
BITMAP
e000000070
e000000070
e000000070
e000000070
e000000070
e000000070
e000000070
e000000070
e000000070
e000000070
e000000070
e000000070
e000000070
e000000070
e000000070
e000000070
e000000070
e000000070
e000000070
e000000070
e000000070
e000000070
e000000070
e000000070
e000000070
e000000070
e000000070
e000000070
e000000070
e000000070
e000000070
e000000070
e000000070
e000000070
e000000070
e000000070
e000000070
f0000000f0
70000000e0
70000000e0
78000001e0
3c000003c0
1e00000380
1f00000f80
0f80001f00
07e0007e00
01fc03fc00
00fffff000
003fffc000
0007fe0000
ENDCHAR
STARTCHAR Union2
ENCODING 231
SWIDTH 1737 0
DWIDTH 56 0
BBX 53 75 1 -27
BITMAP
e0000000000038
e0000000000038
e0000000000038
e0000000000038
e0000000000038
e0000000000038
e0000000000038
e0000000000038
e0000000000038
e0000000000038
e0000000000038
e0000000000038
e0000000000038
e0000000000038
e0000000000038
e0000000000038
e0000000000038
e0000000000038
e0000000000038
e0000000000038
e0000000000038
e0000000000038
e0000000000038
e0000000000038
e0000000000038
e0000000000038
e0000000000038
e0000000000038
e0000000000038
e0000000000038
e0000000000038
e0000000000038
e0000000000038
e0000000000038
e0000000000038
e0000000000038
e0000000000038
e0000000000038
e0000000000038
e0000000000038
e0000000000038
e0000000000038
e0000000000038
e0000000000038
e0000000000038
e0000000000038
e0000000000038
e0000000000038
e0000000000038
e0000000000038
e0000000000038
e0000000000038
e0000000000038
e0000000000038
e0000000000038
f0000000000078
70000000000070
70000000000070
70000000000070
380000000000e0
380000000000e0
1c0000000001c0
1e0000000003c0
0e000000000380
0f000000000780
07800000000f00
03c00000001e00
01f00000003c00
00f8000000f800
003e000003f000
001fc0000fc000
0007f800ff8000
0001fffffe0000
00007ffff00000
000007ff000000
ENDCHAR
STARTCHAR Intersect1
ENCODING 232
SWIDTH 1205 0
DWIDTH 39 0
BBX 36 49 1 -16
BITMAP
0007fe0000
003fffc000
00fffff000
01fc03fc00
07e0007e00
0f80001f00
1f00000f80
1e00000380
3c000003c0
78000001e0
70000000e0
70000000e0
f0000000f0
e000000070
e000000070
e000000070
e000000070
e000000070
e000000070
e000000070
e000000070
e000000070
e000000070
e000000070
e000000070
e000000070
e000000070
e000000070
e000000070
e000000070
e000000070
e000000070
e000000070
e000000070
e000000070
e000000070
e000000070
e000000070
e000000070
e000000070
e000000070
e000000070
e000000070
e000000070
e000000070
e000000070
e000000070
e000000070
e000000070
ENDCHAR
STARTCHAR Intersect2
ENCODING 233
SWIDTH 1737 0
DWIDTH 56 0
BBX 54 75 1 -27
BITMAP
000007ff800000
00007ffff80000
0001ffffff0000
0007fc00ffc000
001fe0000fe000
003f000003f800
00fc000000fc00
01f80000003e00
03e00000001f00
07c00000000f80
0f8000000007c0
0f0000000003c0
1f0000000003e0
1e0000000001e0
3c0000000000f0
3c0000000000f0
78000000000078
78000000000078
78000000000078
f800000000007c
f000000000003c
f000000000003c
f000000000003c
f000000000003c
f000000000003c
f000000000003c
f000000000003c
f000000000003c
f000000000003c
f000000000003c
f000000000003c
f000000000003c
f000000000003c
f000000000003c
f000000000003c
f000000000003c
f000000000003c
f000000000003c
f000000000003c
f000000000003c
f000000000003c
f000000000003c
f000000000003c
f000000000003c
f000000000003c
f000000000003c
f000000000003c
f000000000003c
f000000000003c
f000000000003c
f000000000003c
f000000000003c
f000000000003c
f000000000003c
f000000000003c
f000000000003c
f000000000003c
f000000000003c
f000000000003c
f000000000003c
f000000000003c
f000000000003c
f000000000003c
f000000000003c
f000000000003c
f000000000003c
f000000000003c
f000000000003c
f000000000003c
f000000000003c
f000000000003c
f000000000003c
f000000000003c
f000000000003c
f000000000003c
ENDCHAR
STARTCHAR Or1
ENCODING 234
SWIDTH 861 0
DWIDTH 28 0
BBX 25 29 1 -7
BITMAP
f0000780
70000700
70000700
38000e00
38000e00
3c001e00
1c001c00
1c001c00
0e003800
0e003800
0f007800
07007000
07007000
0380e000
0380e000
03c1e000
01c1c000
01c1c000
01e3c000
00e38000
00e38000
00770000
00770000
007f0000
003e0000
003e0000
001c0000
001c0000
001c0000
ENDCHAR
STARTCHAR Or2
ENCODING 235
SWIDTH 1333 0
DWIDTH 43 0
BBX 40 49 1 -16
BITMAP
f00000000f
700000000e
780000001e
380000001c
380000001c
3c0000003c
1c00000038
1c00000038
1e00000078
0e00000070
0f000000f0
07000000e0
07000000e0
07800001e0
03800001c0
03c00003c0
01c0000380
01c0000380
01e0000780
00e0000700
00f0000f00
0070000f00
0070000e00
0078001e00
0038001c00
0038001c00
003c003c00
001c003800
001e007800
000e007000
000e007000
000f00f000
000700e000
000781e000
000381c000
000381c000
0003c3c000
0001c38000
0001e38000
0000e78000
0000e70000
0000ff0000
00007e0000
00007e0000
00007e0000
00003c0000
00003c0000
0000180000
0000180000
ENDCHAR
STARTCHAR And1
ENCODING 236
SWIDTH 861 0
DWIDTH 28 0
BBX 25 28 1 -6
BITMAP
001c0000
001c0000
001c0000
003e0000
003e0000
007f0000
00770000
00770000
00e38000
00e38000
01e3c000
01c1c000
01c1c000
0380e000
0380e000
0780f000
07007000
0f007800
0e003800
0e003800
1e001c00
1c001c00
3c001e00
38000e00
38000e00
78000700
70000700
f0000780
ENDCHAR
STARTCHAR And2
ENCODING 237
SWIDTH 1333 0
DWIDTH 43 0
BBX 40 50 1 -16
BITMAP
0000180000
0000180000
00003c0000
00003c0000
00003e0000
00007e0000
00007e0000
0000ff0000
0000e70000
0000e70000
0001e78000
0001c38000
0003c3c000
000381c000
000381c000
000781e000
000700e000
000700f000
000f00f000
000e007000
001e007800
001c003800
001c003800
003c003c00
0038001c00
0038001e00
0078000e00
0070000e00
00f0000f00
00e0000700
00e0000700
01e0000780
01c0000380
03c00003c0
03800001c0
03800001c0
07800001e0
07000000e0
07000000e0
0f000000f0
0e00000070
1e00000078
1c00000038
1c00000038
3c0000003c
380000001c
780000001e
780000001e
700000000e
f00000000f
ENDCHAR
STARTCHAR SmallVee
ENCODING 238
SWIDTH 600 0
DWIDTH 19 0
BBX 14 10 3 2
BITMAP
f03c
7038
3870
3cf0
1ce0
0fc0
0fc0
0780
0780
0300
ENDCHAR
STARTCHAR SmallWedge
ENCODING 239
SWIDTH 600 0
DWIDTH 19 0
BBX 14 10 3 2
BITMAP
0300
0780
0780
0fc0
0fc0
1ce0
3cf0
3870
7038
f03c
ENDCHAR
STARTCHAR DoubleGrave
ENCODING 240
SWIDTH 600 0
DWIDTH 19 0
BBX 16 5 2 1
BITMAP
f8f0
3c78
1e3c
0e1e
070f
ENDCHAR
STARTCHAR Breve
ENCODING 241
SWIDTH 600 0
DWIDTH 19 0
BBX 14 5 2 1
BITMAP
e01c
7838
3ff0
1fe0
0fc0
ENDCHAR
STARTCHAR DownBreve
ENCODING 242
SWIDTH 600 0
DWIDTH 19 0
BBX 14 6 2 0
BITMAP
0fc0
1fe0
3ff0
7878
7038
e01c
ENDCHAR
STARTCHAR OverTilde
ENCODING 243
SWIDTH 600 0
DWIDTH 19 0
BBX 14 5 2 2
BITMAP
0008
3f1c
7ff8
7ff8
e1e0
ENDCHAR
STARTCHAR Tilde2
ENCODING 244
SWIDTH 734 0
DWIDTH 23 0
BBX 24 6 0 1
BITMAP
038004
1ff00f
3ffc3e
7c3ffc
f00ff8
2003e0
ENDCHAR
STARTCHAR Tilde3
ENCODING 245
SWIDTH 1102 0
DWIDTH 35 0
BBX 36 7 0 0
BITMAP
01fe000040
0fffe001e0
1ffffc07f0
7e03ffffc0
f8007fff80
70001ffe00
200003f800
ENDCHAR
STARTCHAR Tilde4
ENCODING 246
SWIDTH 1469 0
DWIDTH 47 0
BBX 47 7 0 0
BITMAP
007fe0000008
03fffe00003c
1fffffc001fe
7ffffffffff8
fe0003ffffe0
7800007fff80
2000000ffc00
ENDCHAR
STARTCHAR BackQuote
ENCODING 247
SWIDTH 600 0
DWIDTH 19 0
BBX 7 8 6 10
BITMAP
1e
3c
3c
38
78
70
70
e0
ENDCHAR
STARTCHAR DblBackQuote
ENCODING 248
SWIDTH 76 0
DWIDTH 2 0
BBX 14 8 5 10
BITMAP
1e7c
3c78
3c78
38f0
78f0
78e0
71e0
f1c0
ENDCHAR
STARTCHAR Quote
ENCODING 249
SWIDTH 69 0
DWIDTH 2 0
BBX 7 8 8 10
BITMAP
f0
78
78
38
3c
1c
1c
0e
ENDCHAR
STARTCHAR DblQuote
ENCODING 250
SWIDTH 156 0
DWIDTH 5 0
BBX 14 8 8 10
BITMAP
f9e0
78f0
78f0
3c70
3c78
1c78
1e38
0e3c
ENDCHAR
STARTCHAR VertBar
ENCODING 251
SWIDTH 156 0
DWIDTH 5 0
BBX 3 18 1 0
BITMAP
e0
e0
e0
e0
e0
e0
e0
e0
e0
e0
e0
e0
e0
e0
e0
e0
e0
e0
ENDCHAR
STARTCHAR DblVertBar
ENCODING 252
SWIDTH 0 0
DWIDTH 0 0
BBX 9 18 0 0
BITMAP
e380
e380
e380
e380
e380
e380
e380
e380
e380
e380
e380
e380
e380
e380
e380
e380
e380
e380
ENDCHAR
STARTCHAR VertBarExten
ENCODING 253
SWIDTH 111 0
DWIDTH 4 0
BBX 3 14 1 0
BITMAP
e0
e0
e0
e0
e0
e0
e0
e0
e0
e0
e0
e0
e0
e0
ENDCHAR
STARTCHAR DblVertBarExten
ENCODING 254
SWIDTH 2 0
DWIDTH 0 0
BBX 10 14 0 0
BITMAP
e1c0
e1c0
e1c0
e1c0
e1c0
e1c0
e1c0
e1c0
e1c0
e1c0
e1c0
e1c0
e1c0
e1c0
ENDCHAR
STARTCHAR Coproduct
ENCODING 255
SWIDTH 0 0
DWIDTH 0 0
BBX 17 18 0 0
BITMAP
fe3f80
fe3f80
fe3f80
380e00
380e00
380e00
380e00
380e00
380e00
380e00
380e00
380e00
380e00
380e00
380e00
ffff80
ffff80
ffff80
ENDCHAR
ENDFONT
